{"glyphs":{"0":{"ha":790,"x_min":57,"x_max":732,"o":"m 397 -14 q 260 19 322 -14 q 151 116 197 51 q 81 276 106 181 q 57 500 57 372 q 81 722 57 626 q 150 883 106 818 q 257 980 194 947 q 396 1013 319 1013 q 532 980 471 1013 q 638 883 593 947 q 708 724 683 819 q 732 500 732 628 q 708 278 732 374 q 639 117 683 182 q 533 19 594 51 q 397 -14 472 -14 m 396 33 q 517 65 464 33 q 606 156 569 96 q 660 303 642 217 q 679 500 679 390 q 660 696 679 610 q 606 842 642 782 q 517 934 569 903 q 396 965 464 965 q 274 934 326 965 q 185 843 221 903 q 130 697 149 783 q 111 500 111 611 q 130 303 111 390 q 185 156 149 217 q 274 65 221 96 q 396 33 326 33 z "},"1":{"ha":499,"x_min":57,"x_max":335,"o":"m 283 0 l 283 804 l 57 804 l 57 844 l 92 844 q 235 888 194 844 q 281 1001 275 931 l 335 1001 l 335 0 l 283 0 z "},"2":{"ha":758,"x_min":67,"x_max":683,"o":"m 68 0 l 68 18 q 98 154 68 94 q 176 263 128 214 q 283 353 225 311 q 400 436 342 396 q 507 521 458 476 q 585 617 556 565 q 615 735 615 669 q 585 858 615 806 q 499 938 554 910 q 371 967 444 967 q 236 935 294 967 q 146 848 178 904 q 117 715 114 792 l 69 715 q 104 872 67 804 q 213 976 142 939 q 375 1014 283 1014 q 530 978 464 1014 q 632 881 596 943 q 668 739 668 818 q 639 614 668 669 q 563 511 610 558 q 458 422 515 464 q 342 340 400 381 q 235 255 285 299 q 156 160 186 211 q 122 47 125 110 l 683 47 l 683 0 l 68 0 z "},"3":{"ha":769,"x_min":63,"x_max":692,"o":"m 372 -11 q 208 28 278 -11 q 100 140 138 68 q 65 306 63 211 l 114 306 q 142 165 111 225 q 233 70 174 104 q 371 36 292 36 q 510 65 451 36 q 603 147 569 94 q 636 272 636 200 q 619 372 636 329 q 569 442 601 414 q 491 483 536 469 q 390 497 446 497 l 300 497 l 300 543 l 393 543 q 518 572 468 543 q 594 649 568 600 q 619 758 619 699 q 589 872 619 825 q 504 942 558 918 q 376 967 450 967 q 237 933 294 967 q 150 840 179 900 q 121 700 121 781 l 75 700 q 108 865 72 794 q 214 975 144 936 q 376 1014 283 1014 q 501 996 446 1014 q 594 944 556 978 q 654 864 633 911 q 675 760 675 817 q 653 652 675 700 q 592 572 632 604 q 500 524 553 539 l 500 518 q 603 472 561 506 q 669 387 646 438 q 692 271 692 336 q 651 123 692 186 q 540 24 611 60 q 372 -11 468 -11 z "},"4":{"ha":844,"x_min":74,"x_max":794,"o":"m 597 0 l 597 272 l 74 272 l 74 319 l 563 1001 l 649 1001 l 649 318 l 794 318 l 794 272 l 649 272 l 649 0 l 597 0 m 135 318 l 597 318 l 597 965 l 135 318 z "},"5":{"ha":803,"x_min":79,"x_max":724,"o":"m 392 -11 q 227 28 297 -11 q 118 140 157 68 q 81 306 79 211 l 129 306 q 158 165 126 225 q 251 70 190 104 q 393 36 311 36 q 596 115 525 36 q 667 324 667 194 q 633 481 667 417 q 540 578 600 544 q 399 613 479 613 q 245 573 310 613 q 150 469 181 533 l 103 469 l 122 1001 l 681 1001 l 681 956 l 168 956 l 149 528 l 153 526 q 256 622 189 586 q 407 658 322 658 q 536 635 478 658 q 637 567 594 611 q 701 462 679 522 q 724 326 724 401 q 682 149 724 225 q 566 31 640 74 q 392 -11 492 -11 z "},"6":{"ha":786,"x_min":71,"x_max":721,"o":"m 400 -11 q 251 19 314 -11 q 149 109 189 50 q 90 251 110 168 q 71 438 71 333 q 92 698 71 589 q 155 877 113 807 q 263 981 197 947 q 417 1014 328 1014 q 565 984 503 1014 q 665 899 628 954 q 707 767 701 843 l 660 767 q 620 876 653 832 q 535 944 588 921 q 417 967 483 967 q 265 926 322 967 q 176 814 207 886 q 134 644 146 742 q 119 432 122 547 l 124 432 q 178 544 139 496 q 278 618 218 592 q 414 644 339 644 q 574 604 506 644 q 682 490 643 564 q 721 318 721 417 q 680 143 721 217 q 567 29 639 69 q 400 -11 494 -11 m 403 36 q 540 72 482 36 q 631 171 599 107 q 664 321 664 235 q 631 469 664 407 q 541 565 599 532 q 406 599 483 599 q 262 560 322 599 q 169 456 201 521 q 138 310 138 390 q 171 163 138 225 q 264 69 204 101 q 403 36 324 36 z "},"7":{"ha":772,"x_min":60,"x_max":699,"o":"m 289 0 q 317 290 289 158 q 394 535 346 422 q 506 751 443 649 q 636 956 568 854 l 106 956 l 106 728 l 60 728 l 60 1001 l 699 1001 l 699 967 q 591 803 643 886 q 494 634 539 721 q 416 450 450 547 q 363 242 382 353 q 344 0 344 131 l 289 0 z "},"8":{"ha":807,"x_min":65,"x_max":742,"o":"m 404 -11 q 266 8 328 -11 q 159 63 204 26 q 90 148 114 99 q 65 257 65 197 q 91 368 65 315 q 169 457 117 421 q 299 501 221 493 l 299 504 q 176 550 224 514 q 105 639 128 586 q 82 751 82 692 q 122 890 82 832 q 235 981 163 949 q 404 1013 307 1013 q 574 980 501 1013 q 688 888 647 947 q 729 749 729 829 q 706 638 729 690 q 635 549 683 585 q 511 504 588 513 l 511 501 q 640 462 589 496 q 717 375 692 428 q 742 260 742 322 q 699 118 742 179 q 581 23 657 57 q 404 -11 506 -11 m 404 36 q 553 65 490 36 q 651 145 617 93 q 685 265 685 197 q 655 374 685 326 q 563 449 625 421 q 404 476 501 476 q 244 447 306 476 q 153 369 182 417 q 125 265 125 321 q 160 143 125 194 q 258 64 196 92 q 404 36 321 36 m 404 528 q 562 558 503 528 q 647 638 621 589 q 674 746 674 688 q 640 865 674 815 q 545 940 606 914 q 404 967 485 967 q 262 940 322 967 q 169 863 201 913 q 138 746 138 814 q 153 660 138 700 q 200 591 168 621 q 283 544 232 561 q 404 528 333 528 z "},"9":{"ha":783,"x_min":63,"x_max":713,"o":"m 381 -11 q 237 19 299 -11 q 138 105 175 50 q 94 236 101 160 l 142 236 q 178 130 147 175 q 260 60 208 85 q 382 36 313 36 q 531 75 475 36 q 615 185 586 114 q 653 355 643 257 q 664 571 663 453 l 660 571 q 560 419 636 478 q 368 360 485 360 q 209 400 278 360 q 101 514 140 440 q 63 685 63 588 q 103 860 63 786 q 217 974 144 933 q 383 1014 290 1014 q 532 983 469 1014 q 635 893 594 951 q 694 751 675 835 q 713 561 713 667 q 692 285 713 396 q 628 110 671 175 q 524 17 586 44 q 381 -11 463 -11 m 376 406 q 522 444 461 406 q 614 548 582 482 q 646 694 646 614 q 613 840 646 779 q 519 933 579 900 q 379 967 460 967 q 242 931 301 967 q 151 832 183 896 q 118 682 118 768 q 151 534 118 596 q 242 439 183 472 q 376 406 300 406 z "},"A":{"ha":874,"x_min":10,"x_max":865,"o":"m 10 0 l 403 1013 l 472 1013 l 865 0 l 810 0 l 703 278 l 172 278 l 67 0 l 10 0 m 190 324 l 685 324 l 533 717 l 442 958 l 436 958 l 343 717 l 190 324 z "},"Á":{"ha":874,"x_min":10,"x_max":865,"o":"m 10 0 l 403 1013 l 472 1013 l 865 0 l 810 0 l 703 278 l 172 278 l 67 0 l 10 0 m 190 324 l 685 324 l 533 717 l 442 958 l 436 958 l 343 717 l 190 324 z "},"Â":{"ha":874,"x_min":10,"x_max":865,"o":"m 10 0 l 403 1013 l 472 1013 l 865 0 l 810 0 l 703 278 l 172 278 l 67 0 l 10 0 m 190 324 l 685 324 l 533 717 l 442 958 l 436 958 l 343 717 l 190 324 z "},"Ä":{"ha":874,"x_min":10,"x_max":865,"o":"m 10 0 l 403 1013 l 472 1013 l 865 0 l 810 0 l 703 278 l 172 278 l 67 0 l 10 0 m 190 324 l 685 324 l 533 717 l 442 958 l 436 958 l 343 717 l 190 324 z "},"À":{"ha":874,"x_min":10,"x_max":865,"o":"m 10 0 l 403 1013 l 472 1013 l 865 0 l 810 0 l 703 278 l 172 278 l 67 0 l 10 0 m 190 324 l 685 324 l 533 717 l 442 958 l 436 958 l 343 717 l 190 324 z "},"Å":{"ha":874,"x_min":10,"x_max":865,"o":"m 10 0 l 403 1013 l 472 1013 l 865 0 l 810 0 l 703 278 l 172 278 l 67 0 l 10 0 m 190 324 l 685 324 l 533 717 l 442 958 l 436 958 l 343 717 l 190 324 z "},"Ã":{"ha":874,"x_min":10,"x_max":865,"o":"m 10 0 l 403 1013 l 472 1013 l 865 0 l 810 0 l 703 278 l 172 278 l 67 0 l 10 0 m 190 324 l 685 324 l 533 717 l 442 958 l 436 958 l 343 717 l 190 324 z "},"Æ":{"ha":1185,"x_min":10,"x_max":1110,"o":"m 10 0 l 403 1013 l 1110 1013 l 1110 963 l 494 963 l 494 544 l 1043 544 l 1043 497 l 494 497 l 494 51 l 1110 51 l 1110 0 l 443 0 l 443 278 l 172 278 l 67 0 l 10 0 m 190 324 l 443 324 l 443 958 l 436 958 l 343 717 l 190 324 z "},"B":{"ha":958,"x_min":143,"x_max":890,"o":"m 143 0 l 143 1013 l 567 1013 q 727 980 661 1013 q 828 890 793 947 q 864 754 864 832 q 845 651 864 699 q 788 571 826 604 q 688 524 749 538 l 688 519 q 800 472 756 507 q 867 388 844 438 q 890 278 890 338 q 851 131 890 193 q 738 34 811 68 q 565 0 665 0 l 143 0 m 196 50 l 565 50 q 767 115 699 50 q 835 281 835 179 q 771 438 835 381 q 590 494 707 494 l 196 494 l 196 50 m 196 543 l 588 543 q 710 569 661 543 q 785 640 760 594 q 811 747 811 686 q 744 906 811 849 q 565 964 676 964 l 196 964 l 196 543 z "},"C":{"ha":1050,"x_min":64,"x_max":986,"o":"m 543 -11 q 347 26 435 -11 q 195 133 258 64 q 98 296 132 201 q 64 506 64 390 q 98 716 64 621 q 196 880 132 811 q 347 985 260 949 q 543 1022 435 1022 q 754 981 661 1022 q 908 865 847 940 q 986 686 968 790 l 931 686 q 864 835 915 771 q 731 935 813 899 q 543 972 650 972 q 317 914 413 972 q 172 751 222 856 q 121 506 121 646 q 150 315 121 400 q 234 167 179 229 q 367 72 289 106 q 543 39 444 39 q 732 75 650 39 q 865 177 814 111 q 931 331 917 243 l 986 329 q 913 149 972 225 q 758 31 853 72 q 543 -11 664 -11 z "},"Ç":{"ha":1050,"x_min":64,"x_max":986,"o":"m 543 -11 q 347 26 435 -11 q 195 133 258 64 q 98 296 132 201 q 64 506 64 390 q 98 716 64 621 q 196 880 132 811 q 347 985 260 949 q 543 1022 435 1022 q 754 981 661 1022 q 908 865 847 940 q 986 686 968 790 l 931 686 q 864 835 915 771 q 731 935 813 899 q 543 972 650 972 q 317 914 413 972 q 172 751 222 856 q 121 506 121 646 q 150 315 121 400 q 234 167 179 229 q 367 72 289 106 q 543 39 444 39 q 732 75 650 39 q 865 177 814 111 q 931 331 917 243 l 986 329 q 913 149 972 225 q 758 31 853 72 q 543 -11 664 -11 z "},"D":{"ha":1028,"x_min":143,"x_max":964,"o":"m 143 0 l 143 1013 l 518 1013 q 757 950 657 1013 q 910 774 857 888 q 964 506 964 660 q 933 298 964 392 q 845 138 903 204 q 705 36 788 72 q 518 0 622 0 l 143 0 m 196 51 l 517 51 q 681 83 608 51 q 805 176 754 115 q 882 320 856 236 q 908 507 908 404 q 860 751 908 650 q 724 908 813 853 q 517 963 636 963 l 196 963 l 196 51 z "},"Ð":{"ha":1029,"x_min":3,"x_max":964,"o":"m 3 483 l 3 529 l 451 529 l 451 483 l 3 483 m 143 0 l 143 1013 l 518 1013 q 757 950 657 1013 q 910 774 857 888 q 964 506 964 660 q 933 298 964 392 q 845 138 903 204 q 705 36 788 72 q 518 0 622 0 l 143 0 m 196 51 l 517 51 q 681 83 608 51 q 805 176 754 115 q 882 320 856 236 q 908 507 908 404 q 860 751 908 650 q 724 908 813 853 q 517 963 636 963 l 196 963 l 196 51 z "},"E":{"ha":886,"x_min":143,"x_max":811,"o":"m 143 0 l 143 1013 l 811 1013 l 811 963 l 181 963 l 196 978 l 196 529 l 181 544 l 744 544 l 744 497 l 181 497 l 196 513 l 196 36 l 181 51 l 811 51 l 811 0 l 143 0 z "},"É":{"ha":886,"x_min":143,"x_max":811,"o":"m 143 0 l 143 1013 l 811 1013 l 811 963 l 181 963 l 196 978 l 196 529 l 181 544 l 744 544 l 744 497 l 181 497 l 196 513 l 196 36 l 181 51 l 811 51 l 811 0 l 143 0 z "},"Ê":{"ha":886,"x_min":143,"x_max":811,"o":"m 143 0 l 143 1013 l 811 1013 l 811 963 l 181 963 l 196 978 l 196 529 l 181 544 l 744 544 l 744 497 l 181 497 l 196 513 l 196 36 l 181 51 l 811 51 l 811 0 l 143 0 z "},"Ë":{"ha":886,"x_min":143,"x_max":811,"o":"m 143 0 l 143 1013 l 811 1013 l 811 963 l 181 963 l 196 978 l 196 529 l 181 544 l 744 544 l 744 497 l 181 497 l 196 513 l 196 36 l 181 51 l 811 51 l 811 0 l 143 0 z "},"È":{"ha":886,"x_min":143,"x_max":811,"o":"m 143 0 l 143 1013 l 811 1013 l 811 963 l 181 963 l 196 978 l 196 529 l 181 544 l 744 544 l 744 497 l 181 497 l 196 513 l 196 36 l 181 51 l 811 51 l 811 0 l 143 0 z "},"F":{"ha":856,"x_min":143,"x_max":808,"o":"m 143 0 l 143 1013 l 808 1013 l 808 963 l 181 963 l 196 978 l 196 518 l 181 533 l 753 533 l 753 485 l 181 485 l 196 500 l 196 0 l 143 0 z "},"G":{"ha":1090,"x_min":64,"x_max":1025,"o":"m 550 -11 q 351 26 440 -11 q 197 131 261 63 q 98 295 132 200 q 64 506 64 390 q 99 717 64 622 q 199 880 135 811 q 353 985 264 949 q 551 1022 443 1022 q 765 981 669 1022 q 922 863 860 939 q 999 685 983 788 l 944 685 q 872 841 928 778 q 733 938 815 904 q 551 971 650 971 q 323 913 421 971 q 172 751 225 856 q 118 507 118 647 q 149 315 118 401 q 236 167 179 229 q 372 72 293 106 q 550 39 451 39 q 768 89 674 39 q 915 235 863 139 q 968 465 968 331 l 968 493 l 1001 458 l 579 458 l 579 508 l 1025 508 l 1025 472 q 991 270 1025 360 q 894 118 957 181 q 744 22 832 56 q 550 -11 657 -11 z "},"H":{"ha":1094,"x_min":143,"x_max":951,"o":"m 143 0 l 143 1013 l 196 1013 l 196 524 l 181 539 l 914 539 l 899 524 l 899 1013 l 951 1013 l 951 0 l 899 0 l 899 504 l 914 489 l 181 489 l 196 504 l 196 0 l 143 0 z "},"I":{"ha":339,"x_min":143,"x_max":196,"o":"m 143 0 l 143 1013 l 196 1013 l 196 0 l 143 0 z "},"Í":{"ha":339,"x_min":143,"x_max":296,"o":"m 143 0 l 143 1013 l 196 1013 l 196 0 l 143 0 z "},"Î":{"ha":339,"x_min":-3,"x_max":343,"o":"m 143 0 l 143 1013 l 196 1013 l 196 0 l 143 0 z "},"Ï":{"ha":339,"x_min":29,"x_max":310,"o":"m 143 0 l 143 1013 l 196 1013 l 196 0 l 143 0 z "},"Ì":{"ha":339,"x_min":43,"x_max":196,"o":"m 143 0 l 143 1013 l 196 1013 l 196 0 l 143 0 z "},"J":{"ha":528,"x_min":21,"x_max":385,"o":"m 144 -11 q 74 -3 106 -11 q 21 18 42 6 l 21 69 q 72 47 42 56 q 142 38 103 38 q 244 57 201 38 q 309 119 286 76 q 332 232 332 163 l 332 1013 l 385 1013 l 385 225 q 368 119 385 164 q 321 45 351 74 q 246 3 290 17 q 144 -11 201 -11 z "},"K":{"ha":910,"x_min":143,"x_max":869,"o":"m 143 0 l 143 1013 l 196 1013 l 196 404 l 788 1013 l 858 1013 l 446 590 l 869 0 l 804 0 l 410 553 l 196 333 l 196 0 l 143 0 z "},"L":{"ha":740,"x_min":143,"x_max":726,"o":"m 143 0 l 143 1013 l 196 1013 l 196 21 l 171 51 l 726 51 l 726 0 l 143 0 z "},"M":{"ha":1247,"x_min":143,"x_max":1104,"o":"m 143 0 l 143 1013 l 229 1013 l 621 69 l 624 69 l 1018 1013 l 1104 1013 l 1104 0 l 1050 0 l 1050 583 l 1054 953 l 1044 953 l 649 0 l 599 0 l 201 953 l 193 953 l 196 583 l 196 0 l 143 0 z "},"N":{"ha":1086,"x_min":143,"x_max":943,"o":"m 143 0 l 143 1013 l 219 1013 l 889 60 l 896 60 l 890 421 l 890 1013 l 943 1013 l 943 0 l 867 0 l 199 953 l 192 953 l 196 606 l 196 0 l 143 0 z "},"Ñ":{"ha":1086,"x_min":143,"x_max":943,"o":"m 143 0 l 143 1013 l 219 1013 l 889 60 l 896 60 l 890 421 l 890 1013 l 943 1013 l 943 0 l 867 0 l 199 953 l 192 953 l 196 606 l 196 0 l 143 0 z "},"O":{"ha":1100,"x_min":64,"x_max":1036,"o":"m 550 -11 q 351 26 440 -11 q 197 131 261 63 q 98 295 132 200 q 64 506 64 390 q 99 717 64 622 q 197 881 133 813 q 351 985 261 949 q 550 1022 440 1022 q 750 985 661 1022 q 903 880 839 949 q 1002 717 968 811 q 1036 506 1036 622 q 1001 294 1036 389 q 902 131 967 199 q 749 26 838 63 q 550 -11 660 -11 m 550 39 q 780 98 683 39 q 928 262 876 157 q 981 506 981 367 q 951 697 981 611 q 865 844 921 782 q 729 939 808 906 q 550 972 650 972 q 321 914 417 972 q 173 751 225 856 q 121 506 121 646 q 151 315 121 401 q 236 167 181 229 q 371 72 292 106 q 550 39 450 39 z "},"Ó":{"ha":1100,"x_min":64,"x_max":1036,"o":"m 550 -11 q 351 26 440 -11 q 197 131 261 63 q 98 295 132 200 q 64 506 64 390 q 99 717 64 622 q 197 881 133 813 q 351 985 261 949 q 550 1022 440 1022 q 750 985 661 1022 q 903 880 839 949 q 1002 717 968 811 q 1036 506 1036 622 q 1001 294 1036 389 q 902 131 967 199 q 749 26 838 63 q 550 -11 660 -11 m 550 39 q 780 98 683 39 q 928 262 876 157 q 981 506 981 367 q 951 697 981 611 q 865 844 921 782 q 729 939 808 906 q 550 972 650 972 q 321 914 417 972 q 173 751 225 856 q 121 506 121 646 q 151 315 121 401 q 236 167 181 229 q 371 72 292 106 q 550 39 450 39 z "},"Ô":{"ha":1100,"x_min":64,"x_max":1036,"o":"m 550 -11 q 351 26 440 -11 q 197 131 261 63 q 98 295 132 200 q 64 506 64 390 q 99 717 64 622 q 197 881 133 813 q 351 985 261 949 q 550 1022 440 1022 q 750 985 661 1022 q 903 880 839 949 q 1002 717 968 811 q 1036 506 1036 622 q 1001 294 1036 389 q 902 131 967 199 q 749 26 838 63 q 550 -11 660 -11 m 550 39 q 780 98 683 39 q 928 262 876 157 q 981 506 981 367 q 951 697 981 611 q 865 844 921 782 q 729 939 808 906 q 550 972 650 972 q 321 914 417 972 q 173 751 225 856 q 121 506 121 646 q 151 315 121 401 q 236 167 181 229 q 371 72 292 106 q 550 39 450 39 z "},"Ö":{"ha":1100,"x_min":64,"x_max":1036,"o":"m 550 -11 q 351 26 440 -11 q 197 131 261 63 q 98 295 132 200 q 64 506 64 390 q 99 717 64 622 q 197 881 133 813 q 351 985 261 949 q 550 1022 440 1022 q 750 985 661 1022 q 903 880 839 949 q 1002 717 968 811 q 1036 506 1036 622 q 1001 294 1036 389 q 902 131 967 199 q 749 26 838 63 q 550 -11 660 -11 m 550 39 q 780 98 683 39 q 928 262 876 157 q 981 506 981 367 q 951 697 981 611 q 865 844 921 782 q 729 939 808 906 q 550 972 650 972 q 321 914 417 972 q 173 751 225 856 q 121 506 121 646 q 151 315 121 401 q 236 167 181 229 q 371 72 292 106 q 550 39 450 39 z "},"Ò":{"ha":1100,"x_min":64,"x_max":1036,"o":"m 550 -11 q 351 26 440 -11 q 197 131 261 63 q 98 295 132 200 q 64 506 64 390 q 99 717 64 622 q 197 881 133 813 q 351 985 261 949 q 550 1022 440 1022 q 750 985 661 1022 q 903 880 839 949 q 1002 717 968 811 q 1036 506 1036 622 q 1001 294 1036 389 q 902 131 967 199 q 749 26 838 63 q 550 -11 660 -11 m 550 39 q 780 98 683 39 q 928 262 876 157 q 981 506 981 367 q 951 697 981 611 q 865 844 921 782 q 729 939 808 906 q 550 972 650 972 q 321 914 417 972 q 173 751 225 856 q 121 506 121 646 q 151 315 121 401 q 236 167 181 229 q 371 72 292 106 q 550 39 450 39 z "},"Ø":{"ha":1100,"x_min":64,"x_max":1036,"o":"m 550 -11 q 351 26 440 -11 q 197 131 261 63 q 98 295 132 200 q 64 506 64 390 q 99 717 64 622 q 197 881 133 813 q 351 985 261 949 q 550 1022 440 1022 q 750 985 661 1022 q 903 880 839 949 q 1002 717 968 811 q 1036 506 1036 622 q 1001 294 1036 389 q 902 131 967 199 q 749 26 838 63 q 550 -11 660 -11 m 550 39 q 780 98 683 39 q 928 262 876 157 q 981 506 981 367 q 951 697 981 611 q 865 844 921 782 q 729 939 808 906 q 550 972 650 972 q 321 914 417 972 q 173 751 225 856 q 121 506 121 646 q 151 315 121 401 q 236 167 181 229 q 371 72 292 106 q 550 39 450 39 m 108 -56 l 938 1069 l 992 1069 l 167 -56 l 108 -56 z "},"Õ":{"ha":1100,"x_min":64,"x_max":1036,"o":"m 550 -11 q 351 26 440 -11 q 197 131 261 63 q 98 295 132 200 q 64 506 64 390 q 99 717 64 622 q 197 881 133 813 q 351 985 261 949 q 550 1022 440 1022 q 750 985 661 1022 q 903 880 839 949 q 1002 717 968 811 q 1036 506 1036 622 q 1001 294 1036 389 q 902 131 967 199 q 749 26 838 63 q 550 -11 660 -11 m 550 39 q 780 98 683 39 q 928 262 876 157 q 981 506 981 367 q 951 697 981 611 q 865 844 921 782 q 729 939 808 906 q 550 972 650 972 q 321 914 417 972 q 173 751 225 856 q 121 506 121 646 q 151 315 121 401 q 236 167 181 229 q 371 72 292 106 q 550 39 450 39 z "},"Œ":{"ha":1581,"x_min":64,"x_max":1506,"o":"m 510 0 q 271 63 371 0 q 117 239 171 125 q 64 507 64 353 q 94 715 64 622 q 183 874 125 808 q 323 976 240 940 q 510 1013 406 1013 l 1506 1013 l 1506 963 l 890 963 l 890 544 l 1439 544 l 1439 497 l 890 497 l 890 51 l 1506 51 l 1506 0 l 510 0 m 511 50 l 838 50 l 838 961 l 511 961 q 347 929 419 961 q 223 837 274 897 q 146 692 172 776 q 119 506 119 608 q 167 262 119 364 q 303 105 215 160 q 511 50 392 50 z "},"P":{"ha":897,"x_min":143,"x_max":854,"o":"m 143 0 l 143 1013 l 514 1013 q 655 992 592 1013 q 763 933 718 972 q 831 837 807 893 q 854 707 854 781 q 812 545 854 614 q 693 439 769 476 q 513 401 617 401 l 183 403 l 183 453 l 510 451 q 667 483 603 451 q 765 572 732 514 q 799 707 799 631 q 765 843 799 786 q 667 931 731 900 q 510 961 603 961 l 176 961 l 196 978 l 196 0 l 143 0 z "},"Þ":{"ha":867,"x_min":143,"x_max":824,"o":"m 171 203 l 171 253 l 479 251 q 637 283 572 251 q 735 372 701 314 q 768 507 768 431 q 734 643 768 586 q 636 731 700 700 q 479 761 572 761 l 171 761 l 171 813 l 483 813 q 624 792 561 813 q 732 733 688 772 q 800 637 776 693 q 824 507 824 581 q 781 345 824 414 q 663 239 739 276 q 482 201 586 201 l 171 203 m 143 0 l 143 1013 l 196 1013 l 196 0 l 143 0 z "},"Q":{"ha":1100,"x_min":64,"x_max":1036,"o":"m 889 -232 l 550 -11 q 351 26 440 -11 q 197 131 261 63 q 99 295 133 200 q 64 506 64 390 q 99 717 64 622 q 197 881 133 813 q 351 985 261 949 q 550 1022 440 1022 q 750 985 661 1022 q 903 880 839 949 q 1002 717 968 811 q 1036 506 1036 622 q 986 255 1036 364 q 844 78 936 146 q 628 -7 753 11 l 899 -176 l 899 -232 l 889 -232 m 550 39 q 780 98 683 39 q 928 262 876 157 q 981 506 981 367 q 951 697 981 611 q 865 844 921 782 q 729 939 808 906 q 550 972 650 972 q 321 914 417 972 q 173 751 225 856 q 121 506 121 646 q 151 315 121 401 q 236 167 181 229 q 371 72 292 106 q 550 39 450 39 z "},"R":{"ha":971,"x_min":143,"x_max":881,"o":"m 143 0 l 143 1013 l 574 1013 q 705 995 647 1013 q 801 944 763 978 q 860 861 840 910 q 881 750 881 813 q 835 592 881 657 q 699 501 790 528 l 699 492 q 824 426 789 478 q 860 288 860 375 l 860 101 q 862 53 860 78 q 875 0 864 28 l 821 0 q 808 49 811 24 q 806 107 806 74 l 806 278 q 788 383 806 342 q 722 446 769 425 q 588 467 675 467 l 196 467 l 196 0 l 143 0 m 196 515 l 568 515 q 767 579 707 515 q 826 744 826 643 q 794 869 826 821 q 704 940 763 917 q 568 963 646 963 l 196 963 l 196 515 z "},"S":{"ha":894,"x_min":76,"x_max":818,"o":"m 453 -11 q 241 31 324 -11 q 119 146 158 72 q 76 313 79 219 l 133 313 q 171 165 136 228 q 274 69 206 103 q 450 36 343 36 q 676 90 590 36 q 763 254 763 143 q 745 353 763 313 q 690 420 728 393 q 592 466 651 447 q 450 500 533 485 q 299 536 364 517 q 190 584 233 556 q 124 656 146 613 q 101 764 101 700 q 142 900 101 842 q 258 991 182 958 q 440 1024 333 1024 q 628 988 553 1024 q 742 887 703 951 q 783 735 782 822 l 728 735 q 690 867 725 813 q 590 949 654 921 q 435 976 526 976 q 284 951 346 976 q 190 879 222 925 q 157 771 157 833 q 188 660 157 700 q 289 596 219 619 q 469 551 358 572 q 605 521 542 539 q 716 472 668 503 q 791 389 764 440 q 818 257 818 338 q 776 116 818 176 q 651 22 733 56 q 453 -11 569 -11 z "},"ẞ":{"ha":885,"x_min":143,"x_max":817,"o":"m 143 0 l 143 1013 l 749 1013 l 749 942 l 472 593 l 472 560 l 451 583 l 486 583 q 672 548 599 583 q 781 447 746 513 q 817 293 817 382 q 778 137 817 203 q 668 35 740 71 q 492 0 596 0 l 294 0 l 294 47 l 492 47 q 696 117 632 47 q 760 293 760 188 q 695 472 760 406 q 481 538 631 538 l 399 538 l 399 579 l 703 963 l 197 963 l 197 0 l 143 0 z "},"T":{"ha":775,"x_min":14,"x_max":761,"o":"m 361 0 l 361 963 l 14 963 l 14 1013 l 761 1013 l 761 963 l 414 963 l 414 0 l 361 0 z "},"U":{"ha":1046,"x_min":135,"x_max":911,"o":"m 524 -11 q 317 33 404 -11 q 182 160 229 76 q 135 361 135 243 l 135 1013 l 188 1013 l 188 367 q 228 184 188 257 q 345 76 269 111 q 524 40 421 40 q 713 81 639 40 q 824 194 788 121 q 860 367 860 268 l 860 1013 l 911 1013 l 911 361 q 867 166 911 250 q 736 35 822 82 q 524 -11 650 -11 z "},"Ú":{"ha":1046,"x_min":135,"x_max":911,"o":"m 524 -11 q 317 33 404 -11 q 182 160 229 76 q 135 361 135 243 l 135 1013 l 188 1013 l 188 367 q 228 184 188 257 q 345 76 269 111 q 524 40 421 40 q 713 81 639 40 q 824 194 788 121 q 860 367 860 268 l 860 1013 l 911 1013 l 911 361 q 867 166 911 250 q 736 35 822 82 q 524 -11 650 -11 z "},"Û":{"ha":1046,"x_min":135,"x_max":911,"o":"m 524 -11 q 317 33 404 -11 q 182 160 229 76 q 135 361 135 243 l 135 1013 l 188 1013 l 188 367 q 228 184 188 257 q 345 76 269 111 q 524 40 421 40 q 713 81 639 40 q 824 194 788 121 q 860 367 860 268 l 860 1013 l 911 1013 l 911 361 q 867 166 911 250 q 736 35 822 82 q 524 -11 650 -11 z "},"Ü":{"ha":1046,"x_min":135,"x_max":911,"o":"m 524 -11 q 317 33 404 -11 q 182 160 229 76 q 135 361 135 243 l 135 1013 l 188 1013 l 188 367 q 228 184 188 257 q 345 76 269 111 q 524 40 421 40 q 713 81 639 40 q 824 194 788 121 q 860 367 860 268 l 860 1013 l 911 1013 l 911 361 q 867 166 911 250 q 736 35 822 82 q 524 -11 650 -11 z "},"Ù":{"ha":1046,"x_min":135,"x_max":911,"o":"m 524 -11 q 317 33 404 -11 q 182 160 229 76 q 135 361 135 243 l 135 1013 l 188 1013 l 188 367 q 228 184 188 257 q 345 76 269 111 q 524 40 421 40 q 713 81 639 40 q 824 194 788 121 q 860 367 860 268 l 860 1013 l 911 1013 l 911 361 q 867 166 911 250 q 736 35 822 82 q 524 -11 650 -11 z "},"V":{"ha":881,"x_min":10,"x_max":871,"o":"m 403 0 l 10 1013 l 68 1013 l 383 188 l 436 49 l 444 49 l 497 188 l 815 1013 l 871 1013 l 478 0 l 403 0 z "},"W":{"ha":1258,"x_min":15,"x_max":1243,"o":"m 254 0 l 15 1013 l 72 1013 l 221 375 l 293 60 l 300 60 l 590 1013 l 668 1013 l 958 58 l 967 58 l 1038 376 l 1186 1013 l 1243 1013 l 1004 0 l 925 0 l 632 961 l 625 961 l 332 0 l 254 0 z "},"Ẃ":{"ha":1258,"x_min":15,"x_max":1243,"o":"m 254 0 l 15 1013 l 72 1013 l 221 375 l 293 60 l 300 60 l 590 1013 l 668 1013 l 958 58 l 967 58 l 1038 376 l 1186 1013 l 1243 1013 l 1004 0 l 925 0 l 632 961 l 625 961 l 332 0 l 254 0 z "},"Ŵ":{"ha":1258,"x_min":15,"x_max":1243,"o":"m 254 0 l 15 1013 l 72 1013 l 221 375 l 293 60 l 300 60 l 590 1013 l 668 1013 l 958 58 l 967 58 l 1038 376 l 1186 1013 l 1243 1013 l 1004 0 l 925 0 l 632 961 l 625 961 l 332 0 l 254 0 z "},"Ẅ":{"ha":1258,"x_min":15,"x_max":1243,"o":"m 254 0 l 15 1013 l 72 1013 l 221 375 l 293 60 l 300 60 l 590 1013 l 668 1013 l 958 58 l 967 58 l 1038 376 l 1186 1013 l 1243 1013 l 1004 0 l 925 0 l 632 961 l 625 961 l 332 0 l 254 0 z "},"Ẁ":{"ha":1258,"x_min":15,"x_max":1243,"o":"m 254 0 l 15 1013 l 72 1013 l 221 375 l 293 60 l 300 60 l 590 1013 l 668 1013 l 958 58 l 967 58 l 1038 376 l 1186 1013 l 1243 1013 l 1004 0 l 925 0 l 632 961 l 625 961 l 332 0 l 254 0 z "},"X":{"ha":836,"x_min":-4,"x_max":842,"o":"m -4 0 l 382 550 l 58 1013 l 118 1013 l 417 586 l 421 586 l 719 1013 l 779 1013 l 456 551 l 842 0 l 778 0 l 419 511 l 417 511 l 58 0 l -4 0 z "},"Y":{"ha":821,"x_min":7,"x_max":813,"o":"m 382 0 l 382 417 l 7 1013 l 68 1013 l 407 468 l 413 468 l 753 1013 l 813 1013 l 435 417 l 435 0 l 382 0 z "},"Ý":{"ha":821,"x_min":7,"x_max":813,"o":"m 382 0 l 382 417 l 7 1013 l 68 1013 l 407 468 l 413 468 l 753 1013 l 813 1013 l 435 417 l 435 0 l 382 0 m 388 1115 l 478 1304 l 536 1304 l 426 1115 l 388 1115 z "},"Ŷ":{"ha":821,"x_min":7,"x_max":813,"o":"m 382 0 l 382 417 l 7 1013 l 68 1013 l 407 468 l 413 468 l 753 1013 l 813 1013 l 435 417 l 435 0 l 382 0 m 238 1115 l 390 1304 l 429 1304 l 583 1115 l 525 1115 l 410 1261 l 294 1115 l 238 1115 z "},"Ÿ":{"ha":821,"x_min":7,"x_max":813,"o":"m 382 0 l 382 417 l 7 1013 l 68 1013 l 407 468 l 413 468 l 753 1013 l 813 1013 l 435 417 l 435 0 l 382 0 m 269 1149 l 269 1304 l 322 1304 l 322 1149 l 269 1149 m 496 1149 l 496 1304 l 550 1304 l 550 1149 l 496 1149 z "},"Ỳ":{"ha":821,"x_min":7,"x_max":813,"o":"m 382 0 l 382 417 l 7 1013 l 68 1013 l 407 468 l 413 468 l 753 1013 l 813 1013 l 435 417 l 435 0 l 382 0 m 393 1115 l 283 1304 l 342 1304 l 432 1115 l 393 1115 z "},"Z":{"ha":889,"x_min":63,"x_max":826,"o":"m 63 0 l 63 40 l 738 963 l 83 963 l 83 1013 l 810 1013 l 810 974 l 135 51 l 826 51 l 826 0 l 63 0 z "},"a":{"ha":810,"x_min":63,"x_max":692,"o":"m 364 -11 q 242 15 297 -11 q 146 88 186 40 q 84 205 106 136 q 63 360 63 274 q 101 558 63 475 q 207 686 139 642 q 364 731 275 731 q 487 708 432 731 q 580 647 542 686 q 636 553 618 607 l 640 553 l 643 718 l 692 718 l 692 0 l 640 0 l 640 168 l 636 168 q 538 38 608 88 q 364 -11 467 -11 m 375 36 q 517 76 458 36 q 608 178 576 115 q 639 311 639 240 l 639 410 q 608 544 639 481 q 517 646 576 607 q 375 685 458 685 q 239 647 297 685 q 148 536 181 608 q 115 360 115 464 q 148 185 115 258 q 239 74 181 113 q 375 36 297 36 z "},"á":{"ha":810,"x_min":63,"x_max":692,"o":"m 364 -11 q 242 15 297 -11 q 146 88 186 40 q 84 205 106 136 q 63 360 63 274 q 101 558 63 475 q 207 686 139 642 q 364 731 275 731 q 487 708 432 731 q 580 647 542 686 q 636 553 618 607 l 640 553 l 643 718 l 692 718 l 692 0 l 640 0 l 640 168 l 636 168 q 538 38 608 88 q 364 -11 467 -11 m 375 36 q 517 76 458 36 q 608 178 576 115 q 639 311 639 240 l 639 410 q 608 544 639 481 q 517 646 576 607 q 375 685 458 685 q 239 647 297 685 q 148 536 181 608 q 115 360 115 464 q 148 185 115 258 q 239 74 181 113 q 375 36 297 36 z "},"â":{"ha":810,"x_min":63,"x_max":692,"o":"m 364 -11 q 242 15 297 -11 q 146 88 186 40 q 84 205 106 136 q 63 360 63 274 q 101 558 63 475 q 207 686 139 642 q 364 731 275 731 q 487 708 432 731 q 580 647 542 686 q 636 553 618 607 l 640 553 l 643 718 l 692 718 l 692 0 l 640 0 l 640 168 l 636 168 q 538 38 608 88 q 364 -11 467 -11 m 375 36 q 517 76 458 36 q 608 178 576 115 q 639 311 639 240 l 639 410 q 608 544 639 481 q 517 646 576 607 q 375 685 458 685 q 239 647 297 685 q 148 536 181 608 q 115 360 115 464 q 148 185 115 258 q 239 74 181 113 q 375 36 297 36 z "},"ä":{"ha":810,"x_min":63,"x_max":692,"o":"m 364 -11 q 242 15 297 -11 q 146 88 186 40 q 84 205 106 136 q 63 360 63 274 q 101 558 63 475 q 207 686 139 642 q 364 731 275 731 q 487 708 432 731 q 580 647 542 686 q 636 553 618 607 l 640 553 l 643 718 l 692 718 l 692 0 l 640 0 l 640 168 l 636 168 q 538 38 608 88 q 364 -11 467 -11 m 375 36 q 517 76 458 36 q 608 178 576 115 q 639 311 639 240 l 639 410 q 608 544 639 481 q 517 646 576 607 q 375 685 458 685 q 239 647 297 685 q 148 536 181 608 q 115 360 115 464 q 148 185 115 258 q 239 74 181 113 q 375 36 297 36 z "},"à":{"ha":810,"x_min":63,"x_max":692,"o":"m 364 -11 q 242 15 297 -11 q 146 88 186 40 q 84 205 106 136 q 63 360 63 274 q 101 558 63 475 q 207 686 139 642 q 364 731 275 731 q 487 708 432 731 q 580 647 542 686 q 636 553 618 607 l 640 553 l 643 718 l 692 718 l 692 0 l 640 0 l 640 168 l 636 168 q 538 38 608 88 q 364 -11 467 -11 m 375 36 q 517 76 458 36 q 608 178 576 115 q 639 311 639 240 l 639 410 q 608 544 639 481 q 517 646 576 607 q 375 685 458 685 q 239 647 297 685 q 148 536 181 608 q 115 360 115 464 q 148 185 115 258 q 239 74 181 113 q 375 36 297 36 z "},"å":{"ha":810,"x_min":63,"x_max":692,"o":"m 364 -11 q 242 15 297 -11 q 146 88 186 40 q 84 205 106 136 q 63 360 63 274 q 101 558 63 475 q 207 686 139 642 q 364 731 275 731 q 487 708 432 731 q 580 647 542 686 q 636 553 618 607 l 640 553 l 643 718 l 692 718 l 692 0 l 640 0 l 640 168 l 636 168 q 538 38 608 88 q 364 -11 467 -11 m 375 36 q 517 76 458 36 q 608 178 576 115 q 639 311 639 240 l 639 410 q 608 544 639 481 q 517 646 576 607 q 375 685 458 685 q 239 647 297 685 q 148 536 181 608 q 115 360 115 464 q 148 185 115 258 q 239 74 181 113 q 375 36 297 36 z "},"ã":{"ha":810,"x_min":63,"x_max":692,"o":"m 364 -11 q 242 15 297 -11 q 146 88 186 40 q 84 205 106 136 q 63 360 63 274 q 101 558 63 475 q 207 686 139 642 q 364 731 275 731 q 487 708 432 731 q 580 647 542 686 q 636 553 618 607 l 640 553 l 643 718 l 692 718 l 692 0 l 640 0 l 640 168 l 636 168 q 538 38 608 88 q 364 -11 467 -11 m 375 36 q 517 76 458 36 q 608 178 576 115 q 639 311 639 240 l 639 410 q 608 544 639 481 q 517 646 576 607 q 375 685 458 685 q 239 647 297 685 q 148 536 181 608 q 115 360 115 464 q 148 185 115 258 q 239 74 181 113 q 375 36 297 36 z "},"æ":{"ha":1339,"x_min":63,"x_max":1283,"o":"m 364 -11 q 242 15 297 -11 q 146 88 186 40 q 84 205 106 136 q 63 360 63 274 q 101 558 63 475 q 207 686 139 642 q 364 731 275 731 q 487 708 432 731 q 580 647 542 686 q 636 553 618 607 l 640 553 l 643 718 l 692 718 l 692 553 l 696 553 q 801 683 729 636 q 967 729 874 729 q 1148 679 1076 729 q 1251 545 1219 629 q 1274 356 1283 461 l 692 356 q 729 185 694 256 q 826 76 764 114 q 969 39 888 39 q 1135 85 1068 39 q 1219 211 1201 132 l 1272 211 q 1219 94 1261 144 q 1112 17 1176 44 q 969 -11 1047 -11 q 855 9 908 -11 q 760 69 801 29 q 696 168 719 108 l 692 168 l 692 0 l 640 0 l 640 168 l 636 168 q 538 38 608 88 q 364 -11 467 -11 m 375 36 q 517 76 458 36 q 608 178 576 115 q 639 311 639 240 l 639 410 q 608 544 639 481 q 517 646 576 607 q 375 685 458 685 q 239 647 297 685 q 148 536 181 608 q 115 360 115 464 q 148 185 115 258 q 239 74 181 113 q 375 36 297 36 m 693 401 l 1225 401 q 1190 563 1225 501 q 1097 651 1156 624 q 965 679 1038 679 q 828 646 888 679 q 735 551 769 613 q 693 401 700 489 z "},"b":{"ha":810,"x_min":118,"x_max":747,"o":"m 444 -12 q 323 10 378 -12 q 231 72 268 32 q 174 165 193 113 l 169 165 l 167 0 l 118 0 l 118 1013 l 169 1013 l 169 553 l 174 553 q 272 681 201 632 q 444 731 343 731 q 568 705 513 731 q 664 631 624 679 q 726 513 704 582 q 747 358 747 444 q 709 161 747 244 q 603 33 671 78 q 444 -12 535 -12 m 435 35 q 571 73 513 35 q 662 183 629 111 q 694 358 694 256 q 676 497 694 436 q 623 599 657 557 q 541 662 589 640 q 435 683 493 683 q 292 644 351 683 q 201 542 232 606 q 169 408 169 479 l 169 310 q 201 176 169 239 q 292 74 232 114 q 435 35 351 35 z "},"c":{"ha":758,"x_min":63,"x_max":700,"o":"m 397 -11 q 260 15 322 -11 q 154 90 199 42 q 86 206 110 139 q 63 357 63 274 q 104 551 63 468 q 222 682 146 635 q 401 729 299 729 q 544 699 481 729 q 647 616 607 669 q 696 492 688 563 l 646 492 q 600 594 635 553 q 513 658 565 636 q 399 681 461 681 q 247 640 311 681 q 149 526 183 599 q 114 357 114 453 q 149 187 114 258 q 249 76 185 115 q 397 38 313 38 q 521 63 467 38 q 608 134 575 88 q 649 242 642 181 l 700 242 q 651 108 692 165 q 546 20 611 51 q 397 -11 481 -11 z "},"ç":{"ha":758,"x_min":63,"x_max":700,"o":"m 397 -11 q 260 15 322 -11 q 154 90 199 42 q 86 206 110 139 q 63 357 63 274 q 104 551 63 468 q 222 682 146 635 q 401 729 299 729 q 544 699 481 729 q 647 616 607 669 q 696 492 688 563 l 646 492 q 600 594 635 553 q 513 658 565 636 q 399 681 461 681 q 247 640 311 681 q 149 526 183 599 q 114 357 114 453 q 149 187 114 258 q 249 76 185 115 q 397 38 313 38 q 521 63 467 38 q 608 134 575 88 q 649 242 642 181 l 700 242 q 651 108 692 165 q 546 20 611 51 q 397 -11 481 -11 z "},"d":{"ha":810,"x_min":63,"x_max":692,"o":"m 364 -11 q 242 15 297 -11 q 146 88 186 40 q 84 205 106 136 q 63 360 63 274 q 101 558 63 475 q 207 686 139 642 q 364 731 275 731 q 487 708 432 731 q 580 647 542 686 q 636 553 618 607 l 640 553 l 640 1013 l 692 1013 l 690 0 l 642 0 l 640 168 l 636 168 q 538 38 608 88 q 364 -11 467 -11 m 375 36 q 517 76 458 36 q 608 178 576 115 q 639 311 639 240 l 639 410 q 621 512 639 463 q 569 600 603 561 q 487 662 536 639 q 375 685 438 685 q 239 647 297 685 q 148 536 181 608 q 115 360 115 464 q 148 185 115 258 q 239 74 181 113 q 375 36 297 36 z "},"e":{"ha":761,"x_min":63,"x_max":706,"o":"m 392 -11 q 218 35 292 -11 q 103 164 144 81 q 63 358 63 247 q 101 553 63 469 q 214 683 140 636 q 389 729 288 729 q 570 681 499 729 q 674 547 642 632 q 696 356 706 463 l 114 356 q 151 183 117 254 q 248 74 186 111 q 392 36 310 36 q 558 84 493 36 q 642 211 624 132 l 694 211 q 641 94 683 144 q 534 17 599 44 q 392 -11 469 -11 m 115 394 l 108 401 l 654 401 l 647 390 q 616 553 649 489 q 525 650 583 618 q 388 682 467 682 q 249 647 308 682 q 155 549 189 613 q 115 394 121 485 z "},"é":{"ha":761,"x_min":63,"x_max":706,"o":"m 392 -11 q 218 35 292 -11 q 103 164 144 81 q 63 358 63 247 q 101 553 63 469 q 214 683 140 636 q 389 729 288 729 q 570 681 499 729 q 674 547 642 632 q 696 356 706 463 l 114 356 q 151 183 117 254 q 248 74 186 111 q 392 36 310 36 q 558 84 493 36 q 642 211 624 132 l 694 211 q 641 94 683 144 q 534 17 599 44 q 392 -11 469 -11 m 115 394 l 108 401 l 654 401 l 647 390 q 616 553 649 489 q 525 650 583 618 q 388 682 467 682 q 249 647 308 682 q 155 549 189 613 q 115 394 121 485 z "},"ê":{"ha":761,"x_min":63,"x_max":706,"o":"m 392 -11 q 218 35 292 -11 q 103 164 144 81 q 63 358 63 247 q 101 553 63 469 q 214 683 140 636 q 389 729 288 729 q 570 681 499 729 q 674 547 642 632 q 696 356 706 463 l 114 356 q 151 183 117 254 q 248 74 186 111 q 392 36 310 36 q 558 84 493 36 q 642 211 624 132 l 694 211 q 641 94 683 144 q 534 17 599 44 q 392 -11 469 -11 m 115 394 l 108 401 l 654 401 l 647 390 q 616 553 649 489 q 525 650 583 618 q 388 682 467 682 q 249 647 308 682 q 155 549 189 613 q 115 394 121 485 z "},"ë":{"ha":761,"x_min":63,"x_max":706,"o":"m 392 -11 q 218 35 292 -11 q 103 164 144 81 q 63 358 63 247 q 101 553 63 469 q 214 683 140 636 q 389 729 288 729 q 570 681 499 729 q 674 547 642 632 q 696 356 706 463 l 114 356 q 151 183 117 254 q 248 74 186 111 q 392 36 310 36 q 558 84 493 36 q 642 211 624 132 l 694 211 q 641 94 683 144 q 534 17 599 44 q 392 -11 469 -11 m 115 394 l 108 401 l 654 401 l 647 390 q 616 553 649 489 q 525 650 583 618 q 388 682 467 682 q 249 647 308 682 q 155 549 189 613 q 115 394 121 485 z "},"è":{"ha":761,"x_min":63,"x_max":706,"o":"m 392 -11 q 218 35 292 -11 q 103 164 144 81 q 63 358 63 247 q 101 553 63 469 q 214 683 140 636 q 389 729 288 729 q 570 681 499 729 q 674 547 642 632 q 696 356 706 463 l 114 356 q 151 183 117 254 q 248 74 186 111 q 392 36 310 36 q 558 84 493 36 q 642 211 624 132 l 694 211 q 641 94 683 144 q 534 17 599 44 q 392 -11 469 -11 m 115 394 l 108 401 l 654 401 l 647 390 q 616 553 649 489 q 525 650 583 618 q 388 682 467 682 q 249 647 308 682 q 155 549 189 613 q 115 394 121 485 z "},"f":{"ha":415,"x_min":22,"x_max":418,"o":"m 172 0 l 172 674 l 22 674 l 22 718 l 172 718 l 172 871 q 213 978 172 943 q 317 1013 253 1013 l 418 1013 l 418 965 l 321 965 q 243 937 263 965 q 224 861 224 908 l 224 718 l 400 718 l 400 674 l 224 674 l 224 0 l 172 0 z "},"g":{"ha":792,"x_min":63,"x_max":681,"o":"m 375 -246 q 246 -224 303 -246 q 153 -160 189 -201 q 107 -60 117 -118 l 157 -60 q 194 -135 165 -103 q 269 -183 224 -167 q 375 -200 315 -200 q 508 -178 451 -200 q 598 -103 565 -156 q 631 43 631 -50 l 631 213 l 625 213 q 528 87 599 135 q 360 39 458 39 q 237 63 292 39 q 143 133 182 88 q 83 243 104 179 q 63 385 63 307 q 100 567 63 489 q 206 688 138 644 q 364 731 274 731 q 530 684 461 731 q 625 560 599 638 l 631 560 l 631 718 l 681 718 l 681 35 q 658 -94 681 -40 q 595 -181 636 -147 q 498 -230 554 -214 q 375 -246 442 -246 m 369 85 q 510 123 451 85 q 599 220 568 161 q 631 340 631 279 l 631 429 q 601 549 631 490 q 513 645 571 607 q 372 683 456 683 q 235 647 293 683 q 147 542 178 610 q 115 385 115 475 q 147 224 115 292 q 236 121 179 157 q 369 85 293 85 z "},"h":{"ha":814,"x_min":118,"x_max":703,"o":"m 118 0 l 118 1013 l 168 1013 l 168 556 l 174 556 q 283 685 210 642 q 442 729 356 729 q 547 712 499 729 q 629 657 594 694 q 683 560 664 619 q 703 417 703 501 l 703 0 l 651 0 l 651 408 q 628 563 651 503 q 556 653 604 624 q 435 682 508 682 q 295 643 356 682 q 201 537 235 604 q 168 381 168 469 l 168 0 l 118 0 z "},"i":{"ha":288,"x_min":118,"x_max":169,"o":"m 118 0 l 118 718 l 169 718 l 169 0 l 118 0 m 118 856 l 118 1013 l 169 1013 l 169 856 l 118 856 z "},"ı":{"ha":288,"x_min":118,"x_max":169,"o":"m 118 0 l 118 718 l 169 718 l 169 0 l 118 0 z "},"í":{"ha":288,"x_min":118,"x_max":271,"o":"m 118 0 l 118 718 l 169 718 l 169 0 l 118 0 z "},"î":{"ha":288,"x_min":-28,"x_max":318,"o":"m 118 0 l 118 718 l 169 718 l 169 0 l 118 0 z "},"ï":{"ha":288,"x_min":4,"x_max":285,"o":"m 118 0 l 118 718 l 169 718 l 169 0 l 118 0 z "},"ì":{"ha":288,"x_min":18,"x_max":169,"o":"m 118 0 l 118 718 l 169 718 l 169 0 l 118 0 z "},"j":{"ha":279,"x_min":-43,"x_max":161,"o":"m -43 -246 l -43 -199 l 21 -199 q 91 -174 72 -199 q 110 -104 110 -150 l 110 718 l 161 718 l 161 -111 q 147 -184 161 -154 q 103 -230 133 -214 q 28 -246 74 -246 l -43 -246 m 110 856 l 110 1013 l 161 1013 l 161 856 l 110 856 z "},"k":{"ha":726,"x_min":118,"x_max":675,"o":"m 118 0 l 118 1013 l 169 1013 l 169 306 l 238 374 l 590 718 l 658 718 l 376 444 l 675 0 l 615 0 l 385 339 l 340 408 l 169 243 l 169 0 l 118 0 z "},"l":{"ha":288,"x_min":118,"x_max":169,"o":"m 118 0 l 118 1013 l 169 1013 l 169 0 l 118 0 z "},"m":{"ha":1335,"x_min":118,"x_max":1224,"o":"m 118 0 l 118 718 l 165 718 l 168 556 l 174 556 q 281 685 210 642 q 439 729 353 729 q 590 686 526 729 q 681 547 654 643 l 692 547 q 801 683 728 638 q 967 729 875 729 q 1100 698 1042 729 q 1191 598 1158 667 q 1224 417 1224 529 l 1224 0 l 1174 0 l 1174 408 q 1150 563 1174 503 q 1079 653 1126 624 q 958 682 1032 682 q 822 643 881 682 q 730 537 763 604 q 697 381 697 469 l 697 0 l 644 0 l 644 408 q 621 563 644 503 q 551 653 597 624 q 432 682 504 682 q 294 643 353 682 q 201 537 235 604 q 168 381 168 469 l 168 0 l 118 0 z "},"n":{"ha":814,"x_min":118,"x_max":703,"o":"m 118 0 l 118 718 l 165 718 l 168 556 l 174 556 q 283 685 210 642 q 442 729 356 729 q 547 712 499 729 q 629 657 594 694 q 683 560 664 619 q 703 417 703 501 l 703 0 l 651 0 l 651 408 q 628 563 651 503 q 556 653 604 624 q 435 682 508 682 q 295 643 356 682 q 201 537 235 604 q 168 381 168 469 l 168 0 l 118 0 z "},"ñ":{"ha":814,"x_min":118,"x_max":703,"o":"m 118 0 l 118 718 l 165 718 l 168 556 l 174 556 q 283 685 210 642 q 442 729 356 729 q 547 712 499 729 q 629 657 594 694 q 683 560 664 619 q 703 417 703 501 l 703 0 l 651 0 l 651 408 q 628 563 651 503 q 556 653 604 624 q 435 682 508 682 q 295 643 356 682 q 201 537 235 604 q 168 381 168 469 l 168 0 l 118 0 m 489 863 q 424 872 451 863 q 372 891 396 882 q 319 900 347 900 q 278 892 296 900 q 244 860 261 883 l 219 876 q 251 917 236 901 q 285 939 267 932 q 328 946 304 946 q 383 936 354 946 q 441 917 411 926 q 499 907 471 907 q 540 917 519 907 q 575 949 560 926 l 601 931 q 552 878 579 894 q 489 863 525 863 z "},"o":{"ha":799,"x_min":63,"x_max":736,"o":"m 401 -11 q 263 15 325 -11 q 156 91 201 42 q 87 208 111 140 q 63 357 63 275 q 105 551 63 467 q 224 682 147 635 q 401 729 300 729 q 538 703 476 729 q 644 627 600 676 q 712 510 688 578 q 736 358 736 442 q 694 167 736 250 q 577 36 653 83 q 401 -11 501 -11 m 400 39 q 549 78 485 39 q 648 189 613 117 q 683 358 683 261 q 664 490 683 431 q 608 592 644 549 q 519 658 571 635 q 401 681 467 681 q 252 641 317 681 q 151 529 188 601 q 115 357 115 457 q 135 227 115 286 q 192 126 154 168 q 282 62 229 85 q 400 39 335 39 z "},"ó":{"ha":799,"x_min":63,"x_max":736,"o":"m 401 -11 q 263 15 325 -11 q 156 91 201 42 q 87 208 111 140 q 63 357 63 275 q 105 551 63 467 q 224 682 147 635 q 401 729 300 729 q 538 703 476 729 q 644 627 600 676 q 712 510 688 578 q 736 358 736 442 q 694 167 736 250 q 577 36 653 83 q 401 -11 501 -11 m 400 39 q 549 78 485 39 q 648 189 613 117 q 683 358 683 261 q 664 490 683 431 q 608 592 644 549 q 519 658 571 635 q 401 681 467 681 q 252 641 317 681 q 151 529 188 601 q 115 357 115 457 q 135 227 115 286 q 192 126 154 168 q 282 62 229 85 q 400 39 335 39 z "},"ô":{"ha":799,"x_min":63,"x_max":736,"o":"m 401 -11 q 263 15 325 -11 q 156 91 201 42 q 87 208 111 140 q 63 357 63 275 q 105 551 63 467 q 224 682 147 635 q 401 729 300 729 q 538 703 476 729 q 644 627 600 676 q 712 510 688 578 q 736 358 736 442 q 694 167 736 250 q 577 36 653 83 q 401 -11 501 -11 m 400 39 q 549 78 485 39 q 648 189 613 117 q 683 358 683 261 q 664 490 683 431 q 608 592 644 549 q 519 658 571 635 q 401 681 467 681 q 252 641 317 681 q 151 529 188 601 q 115 357 115 457 q 135 227 115 286 q 192 126 154 168 q 282 62 229 85 q 400 39 335 39 z "},"ö":{"ha":799,"x_min":63,"x_max":736,"o":"m 401 -11 q 263 15 325 -11 q 156 91 201 42 q 87 208 111 140 q 63 357 63 275 q 105 551 63 467 q 224 682 147 635 q 401 729 300 729 q 538 703 476 729 q 644 627 600 676 q 712 510 688 578 q 736 358 736 442 q 694 167 736 250 q 577 36 653 83 q 401 -11 501 -11 m 400 39 q 549 78 485 39 q 648 189 613 117 q 683 358 683 261 q 664 490 683 431 q 608 592 644 549 q 519 658 571 635 q 401 681 467 681 q 252 641 317 681 q 151 529 188 601 q 115 357 115 457 q 135 227 115 286 q 192 126 154 168 q 282 62 229 85 q 400 39 335 39 z "},"ò":{"ha":799,"x_min":63,"x_max":736,"o":"m 401 -11 q 263 15 325 -11 q 156 91 201 42 q 87 208 111 140 q 63 357 63 275 q 105 551 63 467 q 224 682 147 635 q 401 729 300 729 q 538 703 476 729 q 644 627 600 676 q 712 510 688 578 q 736 358 736 442 q 694 167 736 250 q 577 36 653 83 q 401 -11 501 -11 m 400 39 q 549 78 485 39 q 648 189 613 117 q 683 358 683 261 q 664 490 683 431 q 608 592 644 549 q 519 658 571 635 q 401 681 467 681 q 252 641 317 681 q 151 529 188 601 q 115 357 115 457 q 135 227 115 286 q 192 126 154 168 q 282 62 229 85 q 400 39 335 39 z "},"ø":{"ha":799,"x_min":44,"x_max":751,"o":"m 401 -11 q 263 15 325 -11 q 156 91 201 42 q 87 208 111 140 q 63 357 63 275 q 105 551 63 467 q 224 682 147 635 q 401 729 300 729 q 538 703 476 729 q 644 627 600 676 q 712 510 688 578 q 736 358 736 442 q 694 167 736 250 q 577 36 653 83 q 401 -11 501 -11 m 400 39 q 549 78 485 39 q 648 189 613 117 q 683 358 683 261 q 664 490 683 431 q 608 592 644 549 q 519 658 571 635 q 401 681 467 681 q 252 641 317 681 q 151 529 188 601 q 115 357 115 457 q 135 227 115 286 q 192 126 154 168 q 282 62 229 85 q 400 39 335 39 m 44 -83 l 696 801 l 751 801 l 101 -83 l 44 -83 z "},"õ":{"ha":799,"x_min":63,"x_max":736,"o":"m 401 -11 q 263 15 325 -11 q 156 91 201 42 q 87 208 111 140 q 63 357 63 275 q 105 551 63 467 q 224 682 147 635 q 401 729 300 729 q 538 703 476 729 q 644 627 600 676 q 712 510 688 578 q 736 358 736 442 q 694 167 736 250 q 577 36 653 83 q 401 -11 501 -11 m 400 39 q 549 78 485 39 q 648 189 613 117 q 683 358 683 261 q 664 490 683 431 q 608 592 644 549 q 519 658 571 635 q 401 681 467 681 q 252 641 317 681 q 151 529 188 601 q 115 357 115 457 q 135 227 115 286 q 192 126 154 168 q 282 62 229 85 q 400 39 335 39 z "},"œ":{"ha":1383,"x_min":63,"x_max":1328,"o":"m 401 -11 q 263 15 325 -11 q 156 91 201 42 q 87 208 111 140 q 63 357 63 275 q 105 551 63 467 q 224 682 147 635 q 401 729 300 729 q 538 703 476 729 q 644 627 600 676 q 712 510 688 578 q 736 358 736 442 q 694 167 736 250 q 577 36 653 83 q 401 -11 501 -11 m 400 39 q 549 78 485 39 q 648 189 613 117 q 683 358 683 261 q 664 490 683 431 q 608 592 644 549 q 519 658 571 635 q 401 681 467 681 q 252 641 317 681 q 151 529 188 601 q 115 357 115 457 q 135 227 115 286 q 192 126 154 168 q 282 62 229 85 q 400 39 335 39 m 1014 -11 q 840 35 914 -11 q 726 164 767 81 q 685 358 685 247 q 724 553 685 469 q 836 683 763 636 q 1011 729 910 729 q 1192 681 1121 729 q 1296 547 1264 632 q 1318 356 1328 463 l 736 356 q 774 183 739 254 q 870 74 808 111 q 1014 36 932 36 q 1181 84 1115 36 q 1264 211 1246 132 l 1317 211 q 1263 94 1306 144 q 1156 17 1221 44 q 1014 -11 1092 -11 m 738 394 l 731 401 l 1276 401 l 1269 390 q 1238 553 1271 489 q 1147 650 1206 618 q 1010 682 1089 682 q 871 647 931 682 q 777 549 811 613 q 738 394 743 485 z "},"p":{"ha":811,"x_min":118,"x_max":749,"o":"m 118 -232 l 119 718 l 168 718 l 169 553 l 175 553 q 274 681 203 632 q 446 731 344 731 q 568 705 513 731 q 664 631 624 679 q 726 513 704 582 q 749 358 749 444 q 710 161 749 244 q 604 33 672 78 q 446 -12 536 -12 q 324 10 379 -12 q 232 72 269 32 q 175 165 194 113 l 169 165 l 169 -232 l 118 -232 m 436 35 q 572 73 514 35 q 663 183 631 111 q 696 358 696 256 q 663 535 696 463 q 572 645 631 607 q 436 683 514 683 q 293 644 353 683 q 202 542 233 606 q 171 408 171 479 l 171 310 q 189 208 171 257 q 241 119 207 158 q 324 58 275 81 q 436 35 374 35 z "},"þ":{"ha":810,"x_min":118,"x_max":747,"o":"m 118 -232 l 119 1013 l 169 1013 l 169 553 l 174 553 q 272 681 201 632 q 444 731 343 731 q 567 705 511 731 q 663 631 622 679 q 725 513 703 582 q 747 358 747 444 q 709 161 747 244 q 603 33 671 78 q 444 -12 535 -12 q 323 10 378 -12 q 231 72 268 32 q 174 165 193 113 l 168 165 l 168 -232 l 118 -232 m 435 35 q 571 73 513 35 q 662 183 629 111 q 694 358 694 256 q 662 535 694 463 q 571 645 629 607 q 435 683 513 683 q 292 644 351 683 q 201 542 232 606 q 169 408 169 479 l 169 310 q 188 208 169 257 q 240 119 206 158 q 323 58 274 81 q 435 35 372 35 z "},"q":{"ha":810,"x_min":63,"x_max":692,"o":"m 640 -232 l 640 168 l 636 168 q 538 38 608 88 q 364 -11 467 -11 q 242 15 297 -11 q 146 88 186 40 q 84 205 106 136 q 63 360 63 274 q 101 558 63 475 q 207 686 139 642 q 364 731 275 731 q 487 708 432 731 q 580 647 542 686 q 636 553 618 607 l 640 553 l 643 718 l 692 718 l 692 -232 l 640 -232 m 375 36 q 517 76 458 36 q 608 178 576 115 q 639 311 639 240 l 639 410 q 608 544 639 481 q 517 646 576 607 q 375 685 458 685 q 239 647 297 685 q 148 536 181 608 q 115 360 115 464 q 148 185 115 258 q 239 74 181 113 q 375 36 297 36 z "},"r":{"ha":474,"x_min":118,"x_max":442,"o":"m 118 0 l 118 718 l 163 718 l 168 574 l 171 574 q 257 685 194 643 q 397 728 319 728 q 421 727 410 728 q 442 725 432 726 l 442 675 q 421 677 432 676 q 399 678 410 678 q 289 653 339 678 q 207 581 239 628 q 168 467 175 533 l 168 0 l 118 0 z "},"s":{"ha":667,"x_min":58,"x_max":606,"o":"m 338 -14 q 186 16 249 -14 q 91 99 124 46 q 58 222 58 151 l 110 222 q 173 78 110 125 q 339 32 236 32 q 497 72 442 32 q 553 183 553 111 q 531 267 553 236 q 462 314 508 297 q 340 342 415 331 q 197 375 256 354 q 109 433 139 396 q 79 535 79 471 q 111 638 79 594 q 200 707 143 682 q 333 732 257 732 q 474 705 417 732 q 562 628 532 678 q 592 510 592 579 l 542 510 q 514 612 540 574 q 442 668 488 650 q 335 686 396 686 q 184 646 238 686 q 131 540 131 606 q 154 463 131 493 q 226 417 178 433 q 349 390 275 401 q 452 369 406 382 q 533 335 499 357 q 587 277 568 313 q 606 188 606 242 q 532 38 606 90 q 338 -14 458 -14 z "},"ß":{"ha":865,"x_min":17,"x_max":804,"o":"m 167 -232 l 167 724 q 189 856 167 799 q 250 951 211 913 q 342 1008 289 989 q 457 1026 394 1026 q 607 995 544 1026 q 703 908 669 964 q 736 778 736 853 q 720 686 736 729 q 671 611 704 643 q 586 561 638 579 l 586 554 q 698 513 649 547 q 776 422 747 478 q 804 296 804 367 q 766 139 804 206 q 655 36 728 72 q 475 0 582 0 l 207 0 l 207 47 l 471 47 q 680 110 607 47 q 753 297 753 172 q 690 463 753 400 q 511 525 626 525 l 404 525 l 404 571 l 468 571 q 631 625 575 571 q 688 771 688 679 q 626 923 688 868 q 457 978 564 978 q 280 909 342 978 q 218 717 218 840 l 218 -232 l 167 -232 m 17 671 l 17 718 l 185 718 l 185 671 l 17 671 z "},"t":{"ha":444,"x_min":17,"x_max":397,"o":"m 275 0 q 212 11 236 0 q 176 47 188 22 q 165 110 165 71 l 165 674 l 17 674 l 17 718 l 165 718 l 165 946 l 215 958 l 215 718 l 397 718 l 397 674 l 215 674 l 215 118 q 229 61 215 75 q 286 47 243 47 l 397 47 l 397 0 l 275 0 z "},"u":{"ha":807,"x_min":111,"x_max":696,"o":"m 374 -11 q 236 21 296 -11 q 144 119 176 53 q 111 283 111 185 l 111 718 l 163 718 l 163 293 q 185 155 163 213 q 258 67 208 97 q 385 36 307 36 q 519 74 460 36 q 611 181 578 111 q 644 346 644 251 l 644 718 l 696 718 l 696 0 l 649 0 l 644 168 l 639 168 q 538 38 610 86 q 374 -11 467 -11 z "},"ú":{"ha":807,"x_min":111,"x_max":696,"o":"m 374 -11 q 236 21 296 -11 q 144 119 176 53 q 111 283 111 185 l 111 718 l 163 718 l 163 293 q 185 155 163 213 q 258 67 208 97 q 385 36 307 36 q 519 74 460 36 q 611 181 578 111 q 644 346 644 251 l 644 718 l 696 718 l 696 0 l 649 0 l 644 168 l 639 168 q 538 38 610 86 q 374 -11 467 -11 z "},"û":{"ha":807,"x_min":111,"x_max":696,"o":"m 374 -11 q 236 21 296 -11 q 144 119 176 53 q 111 283 111 185 l 111 718 l 163 718 l 163 293 q 185 155 163 213 q 258 67 208 97 q 385 36 307 36 q 519 74 460 36 q 611 181 578 111 q 644 346 644 251 l 644 718 l 696 718 l 696 0 l 649 0 l 644 168 l 639 168 q 538 38 610 86 q 374 -11 467 -11 z "},"ü":{"ha":807,"x_min":111,"x_max":696,"o":"m 374 -11 q 236 21 296 -11 q 144 119 176 53 q 111 283 111 185 l 111 718 l 163 718 l 163 293 q 185 155 163 213 q 258 67 208 97 q 385 36 307 36 q 519 74 460 36 q 611 181 578 111 q 644 346 644 251 l 644 718 l 696 718 l 696 0 l 649 0 l 644 168 l 639 168 q 538 38 610 86 q 374 -11 467 -11 z "},"ù":{"ha":807,"x_min":111,"x_max":696,"o":"m 374 -11 q 236 21 296 -11 q 144 119 176 53 q 111 283 111 185 l 111 718 l 163 718 l 163 293 q 185 155 163 213 q 258 67 208 97 q 385 36 307 36 q 519 74 460 36 q 611 181 578 111 q 644 346 644 251 l 644 718 l 696 718 l 696 0 l 649 0 l 644 168 l 639 168 q 538 38 610 86 q 374 -11 467 -11 z "},"v":{"ha":593,"x_min":-7,"x_max":600,"o":"m 269 0 l -7 719 l 50 719 l 249 186 l 297 54 l 300 54 l 347 186 l 544 719 l 600 719 l 328 0 l 269 0 z "},"w":{"ha":939,"x_min":11,"x_max":928,"o":"m 214 0 l 11 718 l 61 718 l 250 51 l 253 51 l 438 718 l 500 718 l 693 53 l 696 53 l 878 718 l 928 718 l 726 0 l 660 0 l 469 654 l 465 654 l 283 0 l 214 0 z "},"ẃ":{"ha":939,"x_min":11,"x_max":928,"o":"m 214 0 l 11 718 l 61 718 l 250 51 l 253 51 l 438 718 l 500 718 l 693 53 l 696 53 l 878 718 l 928 718 l 726 0 l 660 0 l 469 654 l 465 654 l 283 0 l 214 0 z "},"ŵ":{"ha":939,"x_min":11,"x_max":928,"o":"m 214 0 l 11 718 l 61 718 l 250 51 l 253 51 l 438 718 l 500 718 l 693 53 l 696 53 l 878 718 l 928 718 l 726 0 l 660 0 l 469 654 l 465 654 l 283 0 l 214 0 z "},"ẅ":{"ha":939,"x_min":11,"x_max":928,"o":"m 214 0 l 11 718 l 61 718 l 250 51 l 253 51 l 438 718 l 500 718 l 693 53 l 696 53 l 878 718 l 928 718 l 726 0 l 660 0 l 469 654 l 465 654 l 283 0 l 214 0 z "},"ẁ":{"ha":939,"x_min":11,"x_max":928,"o":"m 214 0 l 11 718 l 61 718 l 250 51 l 253 51 l 438 718 l 500 718 l 693 53 l 696 53 l 878 718 l 928 718 l 726 0 l 660 0 l 469 654 l 465 654 l 283 0 l 214 0 z "},"x":{"ha":647,"x_min":0,"x_max":646,"o":"m 0 0 l 293 375 l 32 718 l 92 718 l 324 414 l 329 414 l 557 718 l 615 718 l 358 376 l 646 0 l 586 0 l 328 339 l 322 339 l 57 0 l 0 0 z "},"y":{"ha":599,"x_min":-7,"x_max":606,"o":"m 32 -232 l 32 -187 l 97 -187 q 158 -177 133 -187 q 201 -145 183 -167 q 232 -90 219 -124 l 290 56 l 290 32 l -7 718 l 49 718 l 264 201 l 306 101 l 311 101 l 350 201 l 554 718 l 606 718 l 275 -107 q 236 -176 258 -149 q 181 -218 214 -204 q 100 -232 149 -232 l 32 -232 z "},"ý":{"ha":599,"x_min":-7,"x_max":606,"o":"m 32 -232 l 32 -187 l 97 -187 q 158 -177 133 -187 q 201 -145 183 -167 q 232 -90 219 -124 l 290 56 l 290 32 l -7 718 l 49 718 l 264 201 l 306 101 l 311 101 l 350 201 l 554 718 l 606 718 l 275 -107 q 236 -176 258 -149 q 181 -218 214 -204 q 100 -232 149 -232 l 32 -232 z "},"ŷ":{"ha":599,"x_min":-7,"x_max":606,"o":"m 32 -232 l 32 -187 l 97 -187 q 158 -177 133 -187 q 201 -145 183 -167 q 232 -90 219 -124 l 290 56 l 290 32 l -7 718 l 49 718 l 264 201 l 306 101 l 311 101 l 350 201 l 554 718 l 606 718 l 275 -107 q 236 -176 258 -149 q 181 -218 214 -204 q 100 -232 149 -232 l 32 -232 z "},"ÿ":{"ha":599,"x_min":-7,"x_max":606,"o":"m 32 -232 l 32 -187 l 97 -187 q 158 -177 133 -187 q 201 -145 183 -167 q 232 -90 219 -124 l 290 56 l 290 32 l -7 718 l 49 718 l 264 201 l 306 101 l 311 101 l 350 201 l 554 718 l 606 718 l 275 -107 q 236 -176 258 -149 q 181 -218 214 -204 q 100 -232 149 -232 l 32 -232 z "},"ỳ":{"ha":599,"x_min":-7,"x_max":606,"o":"m 32 -232 l 32 -187 l 97 -187 q 158 -177 133 -187 q 201 -145 183 -167 q 232 -90 219 -124 l 290 56 l 290 32 l -7 718 l 49 718 l 264 201 l 306 101 l 311 101 l 350 201 l 554 718 l 606 718 l 275 -107 q 236 -176 258 -149 q 181 -218 214 -204 q 100 -232 149 -232 l 32 -232 z "},"z":{"ha":656,"x_min":35,"x_max":621,"o":"m 35 0 l 35 40 l 544 674 l 50 674 l 50 718 l 606 718 l 606 676 l 97 44 l 621 44 l 621 0 l 35 0 z "},"ﬂ":{"ha":747,"x_min":22,"x_max":629,"o":"m 172 0 l 172 674 l 22 674 l 22 718 l 172 718 l 172 871 q 213 978 172 943 q 317 1013 253 1013 l 418 1013 l 418 965 l 321 965 q 243 937 263 965 q 224 861 224 908 l 224 718 l 578 718 l 578 1013 l 629 1013 l 629 0 l 578 0 l 578 674 l 224 674 l 224 0 l 172 0 z "},"ª":{"ha":533,"x_min":39,"x_max":460,"o":"m 235 536 q 133 565 176 536 q 64 648 89 594 q 39 778 39 701 q 64 908 39 854 q 133 992 89 963 q 235 1021 176 1021 q 345 990 300 1021 q 408 908 390 960 l 411 908 l 414 1013 l 460 1013 l 460 543 l 411 543 l 411 649 l 408 649 q 342 565 389 594 q 235 536 296 536 m 249 578 q 336 602 300 578 q 391 665 372 626 q 410 747 410 704 l 410 810 q 391 892 410 853 q 336 955 372 931 q 249 979 300 979 q 165 956 201 979 q 109 888 129 932 q 89 778 89 843 q 133 631 89 683 q 249 578 176 578 z "},"º":{"ha":522,"x_min":39,"x_max":483,"o":"m 263 536 q 146 566 196 536 q 67 650 96 596 q 39 776 39 704 q 67 903 39 849 q 145 988 94 957 q 263 1019 196 1019 q 422 953 361 1019 q 483 778 483 888 q 456 651 483 706 q 378 567 428 597 q 263 536 329 536 m 263 579 q 353 603 314 579 q 413 672 392 628 q 435 778 435 717 q 414 883 435 839 q 354 952 393 928 q 263 976 315 976 q 172 952 211 976 q 110 883 132 928 q 89 776 89 839 q 110 672 89 717 q 170 603 131 628 q 263 579 210 579 z "},"μ":{"ha":806,"x_min":111,"x_max":694,"o":"m 111 -183 l 111 718 l 163 718 l 163 254 q 190 136 163 185 q 268 62 217 88 q 392 36 319 36 q 583 122 524 36 q 643 346 643 207 l 643 718 l 694 718 l 694 0 l 647 0 l 643 168 l 638 168 q 537 33 606 76 q 376 -11 468 -11 q 236 22 296 -11 q 156 115 176 56 l 163 154 l 163 -183 l 111 -183 z "},"π":{"ha":761,"x_min":18,"x_max":735,"o":"m 676 -10 q 608 8 635 -10 q 570 59 582 26 q 558 136 558 92 l 558 674 l 197 674 l 197 0 l 146 0 l 146 674 l 18 674 l 18 718 l 735 718 l 735 674 l 610 674 l 610 164 q 615 99 610 126 q 637 56 621 71 q 683 40 653 40 q 713 44 701 40 q 733 53 725 47 l 733 1 q 713 -7 728 -4 q 676 -10 697 -10 z "},"➀":{"ha":1210,"x_min":83,"x_max":1126,"o":"m 604 -14 q 331 51 449 -14 q 149 233 214 117 q 83 504 83 350 q 149 776 83 660 q 331 958 214 893 q 604 1022 449 1022 q 878 958 761 1022 q 1061 776 996 893 q 1126 504 1126 660 q 1061 233 1126 350 q 878 51 996 117 q 604 -14 761 -14 m 619 229 l 619 656 l 492 656 l 492 692 l 511 692 q 592 716 568 692 q 619 781 615 740 l 667 781 l 667 229 l 619 229 m 604 29 q 853 89 746 29 q 1019 256 960 149 q 1079 504 1079 363 q 1019 753 1079 646 q 853 921 960 861 q 604 981 746 981 q 357 921 464 981 q 190 753 250 861 q 131 504 131 646 q 190 256 131 363 q 357 89 250 149 q 604 29 464 29 z "},"➁":{"ha":1210,"x_min":83,"x_max":1126,"o":"m 604 -14 q 331 51 449 -14 q 149 233 214 117 q 83 504 83 350 q 149 776 83 660 q 331 958 214 893 q 604 1022 449 1022 q 878 958 761 1022 q 1061 776 996 893 q 1126 504 1126 660 q 1061 233 1126 350 q 878 51 996 117 q 604 -14 761 -14 m 604 29 q 853 89 746 29 q 1019 256 960 149 q 1079 504 1079 363 q 1019 753 1079 646 q 853 921 960 861 q 604 981 746 981 q 357 921 464 981 q 190 753 250 861 q 131 504 131 646 q 190 256 131 363 q 357 89 250 149 q 604 29 464 29 m 433 225 l 433 236 q 454 325 433 288 q 508 392 475 363 q 579 448 542 422 q 650 499 617 474 q 704 556 683 525 q 725 625 725 586 q 692 709 725 678 q 604 740 658 740 q 513 706 549 740 q 478 614 476 671 l 435 614 q 481 737 432 690 q 608 783 531 783 q 728 740 683 783 q 774 628 774 696 q 754 551 774 585 q 703 489 735 517 q 638 436 672 461 q 570 385 603 411 q 515 331 538 360 q 489 264 493 301 q 540 267 508 267 q 606 268 571 268 l 781 268 l 781 225 l 433 225 z "},"➂":{"ha":1210,"x_min":83,"x_max":1126,"o":"m 604 -14 q 331 51 449 -14 q 149 233 214 117 q 83 504 83 350 q 149 776 83 660 q 331 958 214 893 q 604 1022 449 1022 q 878 958 761 1022 q 1061 776 996 893 q 1126 504 1126 660 q 1061 233 1126 350 q 878 51 996 117 q 604 -14 761 -14 m 604 29 q 853 89 746 29 q 1019 256 960 149 q 1079 504 1079 363 q 1019 753 1079 646 q 853 921 960 861 q 604 981 746 981 q 357 921 464 981 q 190 753 250 861 q 131 504 131 646 q 190 256 131 363 q 357 89 250 149 q 604 29 464 29 m 604 222 q 474 274 521 222 q 429 397 428 325 l 475 397 q 510 303 474 340 q 603 265 546 265 q 699 299 661 265 q 736 383 736 332 q 702 465 736 436 q 614 494 668 494 l 560 494 l 560 535 l 613 535 q 698 566 669 535 q 726 642 726 597 q 692 717 726 690 q 606 744 658 744 q 515 710 550 744 q 479 614 479 675 l 435 614 q 482 741 433 694 q 607 788 531 788 q 727 750 678 788 q 776 646 776 713 q 749 560 776 593 q 683 517 721 528 l 683 514 q 758 467 732 503 q 785 381 785 431 q 733 267 785 311 q 604 222 682 222 z "},"➃":{"ha":1210,"x_min":83,"x_max":1126,"o":"m 83 504 q 149 776 83 660 q 331 958 214 893 q 604 1022 449 1022 q 878 958 761 1022 q 1061 776 996 893 q 1126 504 1126 660 q 1061 233 1126 350 q 878 51 996 117 q 604 -14 761 -14 q 331 51 449 -14 q 149 233 214 117 q 83 504 83 350 m 131 504 q 190 256 131 363 q 357 89 250 149 q 604 29 464 29 q 853 89 746 29 q 1019 256 960 149 q 1079 504 1079 363 q 1019 753 1079 646 q 853 921 960 861 q 604 981 746 981 q 357 921 464 981 q 190 753 250 861 q 131 504 131 646 m 389 374 l 389 413 l 649 781 l 715 781 l 715 414 l 793 414 l 793 374 l 715 374 l 715 229 l 668 229 l 668 374 l 389 374 m 439 414 l 668 414 l 668 739 l 439 414 z "},"➄":{"ha":1210,"x_min":83,"x_max":1126,"o":"m 604 -14 q 331 51 449 -14 q 149 233 214 117 q 83 504 83 350 q 149 776 83 660 q 331 958 214 893 q 604 1022 449 1022 q 878 958 761 1022 q 1061 776 996 893 q 1126 504 1126 660 q 1061 233 1126 350 q 878 51 996 117 q 604 -14 761 -14 m 604 29 q 853 89 746 29 q 1019 256 960 149 q 1079 504 1079 363 q 1019 753 1079 646 q 853 921 960 861 q 604 981 746 981 q 357 921 464 981 q 190 753 250 861 q 131 504 131 646 q 190 256 131 363 q 357 89 250 149 q 604 29 464 29 m 601 225 q 473 275 522 225 q 425 400 424 325 l 471 400 q 509 303 471 339 q 603 268 547 268 q 701 308 663 268 q 739 411 739 347 q 701 515 739 474 q 606 556 664 556 q 529 535 561 556 q 482 482 497 515 l 438 482 l 449 783 l 763 783 l 763 742 l 490 742 l 481 533 l 483 532 q 537 579 503 561 q 614 597 571 597 q 739 545 689 597 q 789 414 789 493 q 736 278 789 331 q 601 225 683 225 z "},"➅":{"ha":1210,"x_min":83,"x_max":1126,"o":"m 604 -14 q 331 51 449 -14 q 149 233 214 117 q 83 504 83 350 q 149 776 83 660 q 331 958 214 893 q 604 1022 449 1022 q 878 958 761 1022 q 1061 776 996 893 q 1126 504 1126 660 q 1061 233 1126 350 q 878 51 996 117 q 604 -14 761 -14 m 613 264 q 706 303 669 264 q 742 407 742 343 q 706 509 742 472 q 614 546 671 546 q 516 504 551 546 q 481 401 481 463 q 517 301 481 338 q 613 264 554 264 m 604 29 q 853 89 746 29 q 1019 256 960 149 q 1079 504 1079 363 q 1019 753 1079 646 q 853 921 960 861 q 604 981 746 981 q 357 921 464 981 q 190 753 250 861 q 131 504 131 646 q 190 256 131 363 q 357 89 250 149 q 604 29 464 29 m 610 222 q 506 252 547 222 q 444 338 464 282 q 424 475 424 394 q 445 651 424 582 q 510 753 467 719 q 619 786 554 786 q 734 750 689 786 q 785 646 779 714 l 740 646 q 701 718 735 693 q 619 743 668 743 q 526 709 558 743 q 483 616 494 675 q 469 481 471 557 l 472 481 q 527 557 488 529 q 622 585 567 585 q 744 536 697 585 q 792 407 792 488 q 740 272 792 321 q 610 222 689 222 z "},"➆":{"ha":1210,"x_min":83,"x_max":1126,"o":"m 604 -14 q 331 51 449 -14 q 149 233 214 117 q 83 504 83 350 q 149 776 83 660 q 331 958 214 893 q 604 1022 449 1022 q 878 958 761 1022 q 1061 776 996 893 q 1126 504 1126 660 q 1061 233 1126 350 q 878 51 996 117 q 604 -14 761 -14 m 604 29 q 853 89 746 29 q 1019 256 960 149 q 1079 504 1079 363 q 1019 753 1079 646 q 853 921 960 861 q 604 981 746 981 q 357 921 464 981 q 190 753 250 861 q 131 504 131 646 q 190 256 131 363 q 357 89 250 149 q 604 29 464 29 m 550 229 q 576 432 550 343 q 643 596 601 521 q 731 739 685 671 l 467 739 l 467 621 l 426 621 l 426 781 l 788 781 l 788 746 q 696 599 738 674 q 628 435 654 524 q 603 229 603 346 l 550 229 z "},"➇":{"ha":1210,"x_min":83,"x_max":1126,"o":"m 604 -14 q 331 51 449 -14 q 149 233 214 117 q 83 504 83 350 q 149 776 83 660 q 331 958 214 893 q 604 1022 449 1022 q 878 958 761 1022 q 1061 776 996 893 q 1126 504 1126 660 q 1061 233 1126 350 q 878 51 996 117 q 604 -14 761 -14 m 607 264 q 707 295 669 264 q 744 378 744 326 q 710 453 744 424 q 607 483 676 483 q 503 452 536 483 q 471 378 471 421 q 508 294 471 325 q 607 264 546 264 m 604 29 q 853 89 746 29 q 1019 256 960 149 q 1079 504 1079 363 q 1019 753 1079 646 q 853 921 960 861 q 604 981 746 981 q 357 921 464 981 q 190 753 250 861 q 131 504 131 646 q 190 256 131 363 q 357 89 250 149 q 604 29 464 29 m 607 224 q 469 265 522 224 q 417 374 417 306 q 447 459 417 419 q 538 506 478 499 l 538 507 q 453 556 481 517 q 426 642 426 594 q 476 747 426 707 q 607 786 525 786 q 703 768 663 786 q 766 717 743 750 q 789 640 789 685 q 763 556 789 597 q 676 507 738 515 l 676 506 q 767 461 738 500 q 796 374 796 422 q 744 265 796 306 q 607 224 692 224 m 607 525 q 708 558 678 525 q 739 635 739 590 q 702 715 739 686 q 607 744 665 744 q 512 715 547 744 q 476 635 476 685 q 508 557 476 589 q 607 525 539 525 z "},"➈":{"ha":1210,"x_min":83,"x_max":1126,"o":"m 604 -14 q 331 51 449 -14 q 149 233 214 117 q 83 504 83 350 q 149 776 83 660 q 331 958 214 893 q 604 1022 449 1022 q 878 958 761 1022 q 1061 776 996 893 q 1126 504 1126 660 q 1061 233 1126 350 q 878 51 996 117 q 604 -14 761 -14 m 604 29 q 853 89 746 29 q 1019 256 960 149 q 1079 504 1079 363 q 1019 753 1079 646 q 853 921 960 861 q 604 981 746 981 q 357 921 464 981 q 190 753 250 861 q 131 504 131 646 q 190 256 131 363 q 357 89 250 149 q 604 29 464 29 m 601 222 q 491 258 536 222 q 439 361 446 293 l 483 361 q 517 292 488 321 q 603 264 547 264 q 695 299 665 264 q 735 392 725 333 q 744 526 744 451 l 742 526 q 689 452 728 481 q 590 424 650 424 q 469 473 515 424 q 424 603 424 522 q 474 737 424 688 q 604 786 525 786 q 709 756 668 786 q 771 670 750 726 q 792 532 792 614 q 770 348 792 415 q 706 251 749 281 q 601 222 664 222 m 601 463 q 699 504 664 463 q 735 606 735 546 q 699 706 735 669 q 603 743 663 743 q 509 704 544 743 q 474 601 474 665 q 509 500 474 538 q 601 463 544 463 z "},"❶":{"ha":1210,"x_min":83,"x_max":1126,"o":"m 604 -14 q 331 51 449 -14 q 149 233 214 117 q 83 504 83 350 q 149 776 83 660 q 331 958 214 893 q 604 1022 449 1022 q 878 958 761 1022 q 1061 776 996 893 q 1126 504 1126 660 q 1089 292 1126 388 q 983 128 1051 197 q 817 23 914 60 q 604 -14 721 -14 m 619 229 l 667 229 l 667 781 l 619 781 q 592 716 615 740 q 511 692 568 692 l 492 692 l 492 656 l 619 656 l 619 229 z "},"❷":{"ha":1210,"x_min":83,"x_max":1126,"o":"m 604 -14 q 331 51 449 -14 q 149 233 214 117 q 83 504 83 350 q 149 776 83 660 q 331 958 214 893 q 604 1022 449 1022 q 878 958 761 1022 q 1061 776 996 893 q 1126 504 1126 660 q 1089 292 1126 388 q 983 128 1051 197 q 817 23 914 60 q 604 -14 721 -14 m 433 225 l 781 225 l 781 268 l 606 268 q 540 267 571 268 q 489 264 508 267 q 515 331 493 301 q 570 385 538 360 q 638 436 603 411 q 703 489 672 461 q 754 551 735 517 q 774 628 774 585 q 728 740 774 696 q 608 783 683 783 q 481 737 531 783 q 435 614 432 690 l 478 614 q 513 706 476 671 q 604 740 549 740 q 692 709 658 740 q 725 625 725 678 q 704 556 725 586 q 650 499 683 525 q 579 448 617 474 q 508 392 542 422 q 454 325 475 363 q 433 236 433 288 l 433 225 z "},"❸":{"ha":1210,"x_min":83,"x_max":1126,"o":"m 604 -14 q 331 51 449 -14 q 149 233 214 117 q 83 504 83 350 q 149 776 83 660 q 331 958 214 893 q 604 1022 449 1022 q 878 958 761 1022 q 1061 776 996 893 q 1126 504 1126 660 q 1089 292 1126 388 q 983 128 1051 197 q 817 23 914 60 q 604 -14 721 -14 m 604 222 q 733 267 682 222 q 785 381 785 311 q 758 467 785 431 q 683 514 732 503 l 683 517 q 749 560 721 528 q 776 646 776 593 q 727 750 776 713 q 607 788 678 788 q 482 741 531 788 q 435 614 433 694 l 479 614 q 515 710 479 675 q 606 744 550 744 q 692 717 658 744 q 726 642 726 690 q 698 566 726 597 q 613 535 669 535 l 560 535 l 560 494 l 614 494 q 702 465 668 494 q 736 383 736 436 q 699 299 736 332 q 603 265 661 265 q 510 303 546 265 q 475 397 474 340 l 429 397 q 474 274 428 325 q 604 222 521 222 z "},"❹":{"ha":1210,"x_min":83,"x_max":1126,"o":"m 83 504 q 149 776 83 660 q 331 958 214 893 q 604 1022 449 1022 q 878 958 761 1022 q 1061 776 996 893 q 1126 504 1126 660 q 1089 292 1126 388 q 983 128 1051 197 q 817 23 914 60 q 604 -14 721 -14 q 331 51 449 -14 q 149 233 214 117 q 83 504 83 350 m 389 374 l 668 374 l 668 229 l 715 229 l 715 374 l 793 374 l 793 414 l 715 414 l 715 781 l 649 781 l 389 413 l 389 374 m 439 414 l 668 739 l 668 414 l 439 414 z "},"❺":{"ha":1210,"x_min":83,"x_max":1126,"o":"m 604 -14 q 331 51 449 -14 q 149 233 214 117 q 83 504 83 350 q 149 776 83 660 q 331 958 214 893 q 604 1022 449 1022 q 878 958 761 1022 q 1061 776 996 893 q 1126 504 1126 660 q 1089 292 1126 388 q 983 128 1051 197 q 817 23 914 60 q 604 -14 721 -14 m 601 225 q 736 278 683 225 q 789 414 789 331 q 739 545 789 493 q 614 597 689 597 q 537 579 571 597 q 483 532 503 561 l 481 533 l 490 742 l 763 742 l 763 783 l 449 783 l 438 482 l 482 482 q 529 535 497 515 q 606 556 561 556 q 701 515 664 556 q 739 411 739 474 q 701 308 739 347 q 603 268 663 268 q 509 303 547 268 q 471 400 471 339 l 425 400 q 473 275 424 325 q 601 225 522 225 z "},"❻":{"ha":1210,"x_min":83,"x_max":1126,"o":"m 604 -14 q 331 51 449 -14 q 149 233 214 117 q 83 504 83 350 q 149 776 83 660 q 331 958 214 893 q 604 1022 449 1022 q 878 958 761 1022 q 1061 776 996 893 q 1126 504 1126 660 q 1089 292 1126 388 q 983 128 1051 197 q 817 23 914 60 q 604 -14 721 -14 m 613 264 q 517 301 554 264 q 481 401 481 338 q 516 504 481 463 q 614 546 551 546 q 706 509 671 546 q 742 407 742 472 q 706 303 742 343 q 613 264 669 264 m 610 222 q 740 272 689 222 q 792 407 792 321 q 744 536 792 488 q 622 585 697 585 q 527 557 567 585 q 472 481 488 529 l 469 481 q 483 616 471 557 q 526 709 494 675 q 619 743 558 743 q 701 718 668 743 q 740 646 735 693 l 785 646 q 734 750 779 714 q 619 786 689 786 q 510 753 554 786 q 445 651 467 719 q 424 475 424 582 q 444 338 424 394 q 506 252 464 282 q 610 222 547 222 z "},"❼":{"ha":1210,"x_min":83,"x_max":1126,"o":"m 604 -14 q 331 51 449 -14 q 149 233 214 117 q 83 504 83 350 q 149 776 83 660 q 331 958 214 893 q 604 1022 449 1022 q 878 958 761 1022 q 1061 776 996 893 q 1126 504 1126 660 q 1089 292 1126 388 q 983 128 1051 197 q 817 23 914 60 q 604 -14 721 -14 m 550 229 l 603 229 q 628 435 603 346 q 696 599 654 524 q 788 746 738 674 l 788 781 l 426 781 l 426 621 l 467 621 l 467 739 l 731 739 q 643 596 685 671 q 576 432 601 521 q 550 229 550 343 z "},"❽":{"ha":1210,"x_min":83,"x_max":1126,"o":"m 83 504 q 149 776 83 660 q 331 958 214 893 q 604 1022 449 1022 q 878 958 761 1022 q 1061 776 996 893 q 1126 504 1126 660 q 1089 292 1126 388 q 983 128 1051 197 q 817 23 914 60 q 604 -14 721 -14 q 331 51 449 -14 q 149 233 214 117 q 83 504 83 350 m 417 374 q 469 265 417 306 q 607 224 522 224 q 744 265 692 224 q 796 374 796 306 q 767 461 796 422 q 676 506 738 500 l 676 507 q 763 556 738 515 q 789 640 789 597 q 766 717 789 685 q 703 768 743 750 q 607 786 663 786 q 512 768 553 786 q 449 717 471 750 q 426 642 426 685 q 453 556 426 594 q 538 507 481 517 l 538 506 q 447 459 478 499 q 417 374 417 419 m 471 378 q 503 452 471 421 q 607 483 536 483 q 710 453 676 483 q 744 378 744 424 q 707 295 744 326 q 607 264 669 264 q 508 294 546 264 q 471 378 471 325 m 476 635 q 512 715 476 685 q 607 744 547 744 q 702 715 665 744 q 739 635 739 686 q 708 558 739 590 q 607 525 678 525 q 508 557 539 525 q 476 635 476 589 z "},"❾":{"ha":1210,"x_min":83,"x_max":1126,"o":"m 604 -14 q 331 51 449 -14 q 149 233 214 117 q 83 504 83 350 q 149 776 83 660 q 331 958 214 893 q 604 1022 449 1022 q 878 958 761 1022 q 1061 776 996 893 q 1126 504 1126 660 q 1089 292 1126 388 q 983 128 1051 197 q 817 23 914 60 q 604 -14 721 -14 m 601 222 q 706 251 664 222 q 770 348 749 281 q 792 532 792 415 q 771 670 792 614 q 709 756 750 726 q 604 786 668 786 q 474 737 525 786 q 424 603 424 688 q 469 473 424 522 q 590 424 515 424 q 689 452 650 424 q 742 526 728 481 l 744 526 q 735 392 744 451 q 695 299 725 333 q 603 264 665 264 q 517 292 547 264 q 483 361 488 321 l 439 361 q 491 258 446 293 q 601 222 536 222 m 601 463 q 509 500 544 463 q 474 601 474 538 q 509 704 474 665 q 603 743 544 743 q 699 706 663 743 q 735 606 735 669 q 699 504 735 546 q 601 463 664 463 z "},"₀":{"ha":481,"x_min":33,"x_max":447,"o":"m 242 -50 q 133 -15 179 -50 q 60 90 86 21 q 33 258 33 158 q 60 428 33 360 q 133 531 86 496 q 242 565 179 565 q 325 546 288 565 q 390 488 363 526 q 433 391 418 449 q 447 258 447 333 q 422 89 447 157 q 349 -15 396 21 q 242 -50 303 -50 m 242 -7 q 327 24 292 -7 q 381 113 363 54 q 400 258 400 172 q 381 403 400 344 q 327 493 363 463 q 242 524 292 524 q 155 493 190 524 q 101 403 119 463 q 82 258 82 344 q 92 145 82 194 q 123 62 103 96 q 173 10 143 28 q 242 -7 203 -7 z "},"₁":{"ha":313,"x_min":32,"x_max":218,"o":"m 171 -42 l 171 426 l 32 426 l 32 463 l 54 463 q 141 490 115 463 q 171 560 167 517 l 218 560 l 218 -42 l 171 -42 z "},"₂":{"ha":461,"x_min":38,"x_max":418,"o":"m 39 -42 l 39 -29 q 63 67 39 26 q 122 140 86 108 q 200 201 158 172 q 278 258 242 229 q 338 319 314 286 q 361 396 361 353 q 324 489 361 454 q 225 524 286 524 q 123 486 163 524 q 85 383 83 449 l 40 383 q 91 516 38 465 q 229 567 144 567 q 360 519 311 567 q 410 399 410 472 q 388 314 410 351 q 332 246 367 276 q 258 188 297 215 q 182 133 218 161 q 122 74 146 106 q 94 1 99 42 l 418 1 l 418 -42 l 39 -42 z "},"₃":{"ha":471,"x_min":36,"x_max":425,"o":"m 228 -49 q 125 -25 168 -49 q 59 42 82 -1 q 38 142 36 85 l 83 142 q 99 67 82 100 q 149 14 115 33 q 228 -6 182 -6 q 335 30 294 -6 q 375 125 375 65 q 358 195 375 168 q 310 236 340 222 q 239 250 279 250 l 182 250 l 182 289 l 239 289 q 333 324 301 289 q 365 408 365 358 q 328 495 365 465 q 231 525 290 525 q 125 484 163 525 q 88 378 88 443 l 43 378 q 65 477 42 435 q 131 543 88 519 q 232 567 174 567 q 330 547 289 567 q 393 494 371 528 q 415 413 415 460 q 386 321 415 357 q 314 272 357 285 l 314 268 q 394 221 364 258 q 425 122 425 183 q 400 33 425 71 q 331 -27 375 -6 q 228 -49 288 -49 z "},"₄":{"ha":514,"x_min":42,"x_max":483,"o":"m 350 -42 l 350 117 l 42 117 l 42 157 l 328 560 l 397 560 l 397 158 l 483 158 l 483 117 l 397 117 l 397 -42 l 350 -42 m 94 158 l 350 158 l 350 518 l 94 158 z "},"₅":{"ha":489,"x_min":47,"x_max":443,"o":"m 240 -49 q 138 -25 182 -49 q 71 42 94 -1 q 47 142 47 85 l 93 142 q 111 63 93 96 q 163 13 129 31 q 240 -6 197 -6 q 353 38 314 -6 q 393 153 393 82 q 352 272 393 229 q 243 314 311 314 q 157 292 193 314 q 104 233 121 269 l 60 233 l 72 560 l 415 560 l 415 517 l 115 517 l 104 285 l 107 283 q 167 335 128 315 q 253 356 206 356 q 353 330 311 356 q 419 260 396 304 q 443 156 443 215 q 418 49 443 94 q 347 -23 393 3 q 240 -49 301 -49 z "},"₆":{"ha":481,"x_min":42,"x_max":443,"o":"m 244 -49 q 154 -30 193 -49 q 91 24 115 -11 q 54 110 67 58 q 42 225 42 161 q 65 419 42 344 q 136 531 89 494 q 254 567 183 567 q 347 548 308 567 q 408 496 386 529 q 435 415 431 463 l 390 415 q 348 495 385 467 q 254 524 311 524 q 152 488 188 524 q 103 385 117 451 q 89 231 90 319 l 92 231 q 150 315 106 283 q 258 347 194 347 q 354 323 313 347 q 419 255 396 299 q 443 151 443 211 q 417 45 443 90 q 347 -24 392 0 q 244 -49 303 -49 m 247 -6 q 353 38 313 -6 q 393 153 393 81 q 353 267 393 225 q 249 308 314 308 q 169 287 203 308 q 117 229 135 265 q 99 147 99 193 q 117 66 99 100 q 169 13 136 32 q 247 -6 203 -6 z "},"₇":{"ha":474,"x_min":36,"x_max":429,"o":"m 172 -42 q 201 179 172 82 q 275 358 229 276 q 372 517 321 440 l 76 517 l 76 386 l 36 386 l 36 560 l 429 560 l 429 526 q 352 406 389 467 q 286 279 315 346 q 240 133 257 213 q 224 -42 224 54 l 172 -42 z "},"₈":{"ha":492,"x_min":39,"x_max":453,"o":"m 246 -49 q 138 -28 185 -49 q 65 28 90 -8 q 39 114 39 65 q 55 183 39 151 q 101 235 71 214 q 174 260 132 256 l 174 263 q 77 316 106 272 q 49 407 49 360 q 74 491 49 456 q 143 546 99 526 q 246 565 188 565 q 351 545 307 565 q 420 490 396 525 q 444 406 444 454 q 417 315 444 358 q 319 263 389 271 l 319 260 q 419 213 386 254 q 453 115 453 172 q 396 -3 453 42 q 246 -49 339 -49 m 246 -6 q 359 29 317 -6 q 401 121 401 64 q 364 206 401 172 q 246 239 326 239 q 128 203 165 239 q 92 121 92 168 q 111 53 92 82 q 165 10 131 25 q 246 -6 200 -6 m 246 282 q 361 318 328 282 q 394 403 394 354 q 376 469 394 442 q 324 510 357 496 q 246 525 290 525 q 138 492 178 525 q 99 403 99 460 q 134 317 99 351 q 246 282 169 282 z "},"₉":{"ha":481,"x_min":38,"x_max":439,"o":"m 233 -49 q 109 -8 157 -49 q 54 103 61 33 l 100 103 q 139 25 104 56 q 233 -6 174 -6 q 335 31 301 -6 q 380 135 368 68 q 392 288 392 201 l 389 288 q 331 204 375 236 q 221 172 288 172 q 125 197 167 172 q 60 265 83 221 q 38 368 38 310 q 93 513 38 460 q 235 567 149 567 q 326 548 288 567 q 389 494 364 529 q 426 407 414 458 q 439 290 439 356 q 415 88 439 163 q 346 -17 392 14 q 233 -49 300 -49 m 231 211 q 341 258 301 211 q 381 372 381 304 q 363 453 381 419 q 311 505 344 486 q 232 524 278 524 q 128 481 168 524 q 88 365 88 438 q 127 252 88 293 q 231 211 167 211 z "},"⁰":{"ha":481,"x_min":33,"x_max":447,"o":"m 242 444 q 133 480 179 444 q 60 584 86 515 q 33 753 33 653 q 60 922 33 854 q 133 1025 86 990 q 242 1060 179 1060 q 325 1040 288 1060 q 390 982 363 1021 q 433 885 418 943 q 447 753 447 828 q 422 584 447 653 q 349 480 396 515 q 242 444 303 444 m 242 488 q 327 518 292 488 q 381 608 363 549 q 400 753 400 667 q 381 898 400 839 q 327 988 363 957 q 242 1018 292 1018 q 155 988 190 1018 q 101 898 119 957 q 82 753 82 839 q 92 640 82 689 q 123 556 103 590 q 173 505 143 522 q 242 488 203 488 z "},"¹":{"ha":313,"x_min":32,"x_max":218,"o":"m 171 453 l 171 921 l 32 921 l 32 957 l 54 957 q 141 984 115 957 q 171 1054 167 1011 l 218 1054 l 218 453 l 171 453 z "},"²":{"ha":461,"x_min":38,"x_max":418,"o":"m 39 453 l 39 465 q 63 562 39 521 q 122 635 86 603 q 200 695 158 667 q 278 752 242 724 q 338 814 314 781 q 361 890 361 847 q 324 983 361 949 q 225 1018 286 1018 q 123 981 163 1018 q 85 878 83 943 l 40 878 q 91 1010 38 960 q 229 1061 144 1061 q 360 1014 311 1061 q 410 893 410 967 q 388 808 410 846 q 332 740 367 771 q 258 683 297 710 q 182 628 218 656 q 122 568 146 600 q 94 496 99 536 l 418 496 l 418 453 l 39 453 z "},"³":{"ha":471,"x_min":36,"x_max":425,"o":"m 228 446 q 125 469 168 446 q 59 536 82 493 q 38 636 36 579 l 83 636 q 99 561 82 594 q 149 508 115 528 q 228 489 182 489 q 335 524 294 489 q 375 619 375 560 q 358 690 375 663 q 310 731 340 717 q 239 744 279 744 l 182 744 l 182 783 l 239 783 q 333 818 301 783 q 365 903 365 853 q 328 990 365 960 q 231 1019 290 1019 q 125 978 163 1019 q 88 872 88 938 l 43 872 q 65 972 42 929 q 131 1038 88 1014 q 232 1061 174 1061 q 330 1042 289 1061 q 393 988 371 1022 q 415 907 415 954 q 386 815 415 851 q 314 767 357 779 l 314 763 q 394 715 364 753 q 425 617 425 678 q 400 527 425 565 q 331 467 375 489 q 228 446 288 446 z "},"⁴":{"ha":514,"x_min":42,"x_max":483,"o":"m 350 453 l 350 611 l 42 611 l 42 651 l 328 1054 l 397 1054 l 397 653 l 483 653 l 483 611 l 397 611 l 397 453 l 350 453 m 94 653 l 350 653 l 350 1013 l 94 653 z "},"⁵":{"ha":489,"x_min":47,"x_max":443,"o":"m 240 446 q 138 469 182 446 q 71 536 94 493 q 47 636 47 579 l 93 636 q 111 558 93 590 q 163 507 129 525 q 240 489 197 489 q 353 533 314 489 q 393 647 393 576 q 352 766 393 724 q 243 808 311 808 q 157 786 193 808 q 104 728 121 764 l 60 728 l 72 1054 l 415 1054 l 415 1011 l 115 1011 l 104 779 l 107 778 q 167 830 128 810 q 253 850 206 850 q 353 824 311 850 q 419 754 396 799 q 443 650 443 710 q 418 543 443 589 q 347 472 393 497 q 240 446 301 446 z "},"⁶":{"ha":481,"x_min":42,"x_max":443,"o":"m 244 446 q 154 465 193 446 q 91 518 115 483 q 54 604 67 553 q 42 719 42 656 q 65 914 42 839 q 136 1025 89 989 q 254 1061 183 1061 q 347 1042 308 1061 q 408 990 386 1024 q 435 910 431 957 l 390 910 q 348 990 385 961 q 254 1018 311 1018 q 152 982 188 1018 q 103 880 117 946 q 89 725 90 814 l 92 725 q 150 810 106 778 q 258 842 194 842 q 354 817 313 842 q 419 749 396 793 q 443 646 443 706 q 417 540 443 585 q 347 470 392 494 q 244 446 303 446 m 247 489 q 353 532 313 489 q 393 647 393 575 q 353 761 393 719 q 249 803 314 803 q 169 781 203 803 q 117 724 135 760 q 99 642 99 688 q 117 560 99 594 q 169 508 136 526 q 247 489 203 489 z "},"⁷":{"ha":474,"x_min":36,"x_max":429,"o":"m 172 453 q 201 674 172 576 q 275 853 229 771 q 372 1011 321 935 l 76 1011 l 76 881 l 36 881 l 36 1054 l 429 1054 l 429 1021 q 352 901 389 961 q 286 774 315 840 q 240 628 257 707 q 224 453 224 549 l 172 453 z "},"⁸":{"ha":492,"x_min":39,"x_max":453,"o":"m 246 446 q 138 466 185 446 q 65 523 90 486 q 39 608 39 560 q 55 677 39 646 q 101 729 71 708 q 174 754 132 750 l 174 757 q 77 810 106 767 q 49 901 49 854 q 74 985 49 950 q 143 1040 99 1021 q 246 1060 188 1060 q 351 1040 307 1060 q 420 984 396 1019 q 444 900 444 949 q 417 809 444 853 q 319 757 389 765 l 319 754 q 419 708 386 749 q 453 610 453 667 q 396 491 453 536 q 246 446 339 446 m 246 489 q 359 524 317 489 q 401 615 401 558 q 364 700 401 667 q 246 733 326 733 q 128 698 165 733 q 92 615 92 663 q 111 548 92 576 q 165 504 131 519 q 246 489 200 489 m 246 776 q 361 813 328 776 q 394 897 394 849 q 376 963 394 936 q 324 1005 357 990 q 246 1019 290 1019 q 138 987 178 1019 q 99 897 99 954 q 134 811 99 846 q 246 776 169 776 z "},"⁹":{"ha":481,"x_min":38,"x_max":439,"o":"m 233 446 q 109 487 157 446 q 54 597 61 528 l 100 597 q 139 519 104 550 q 233 489 174 489 q 335 526 301 489 q 380 629 368 563 q 392 782 392 696 l 389 782 q 331 699 375 731 q 221 667 288 667 q 125 691 167 667 q 60 760 83 715 q 38 863 38 804 q 93 1008 38 954 q 235 1061 149 1061 q 326 1042 288 1061 q 389 988 364 1024 q 426 901 414 953 q 439 785 439 850 q 415 583 439 657 q 346 477 392 508 q 233 446 300 446 m 231 706 q 341 752 301 706 q 381 867 381 799 q 363 947 381 914 q 311 999 344 981 q 232 1018 278 1018 q 128 975 168 1018 q 88 860 88 932 q 127 747 88 788 q 231 706 167 706 z "},"⁄":{"ha":144,"x_min":-299,"x_max":443,"o":"m -299 0 l 390 1001 l 443 1001 l -247 0 l -299 0 z "},"½":{"ha":861,"x_min":-22,"x_max":818,"o":"m 140 450 l 140 878 l 13 878 l 13 913 l 32 913 q 113 937 89 913 q 140 1001 136 961 l 185 1001 l 185 450 l 140 450 m -22 0 l 667 1001 l 719 1001 l 29 0 l -22 0 m 469 0 l 469 11 q 491 99 469 61 q 546 167 513 138 q 617 222 579 196 q 688 274 654 247 q 742 331 721 300 q 764 401 764 361 q 731 486 764 454 q 640 518 697 518 q 544 481 578 518 q 513 389 511 444 l 471 389 q 517 512 468 465 q 644 558 567 558 q 765 515 719 558 q 811 404 811 471 q 791 327 811 361 q 740 265 771 293 q 672 212 708 238 q 603 160 636 186 q 549 105 571 135 q 522 38 526 75 q 579 40 544 39 q 640 40 614 40 l 818 40 l 818 0 l 469 0 z "},"¼":{"ha":771,"x_min":-22,"x_max":756,"o":"m 140 450 l 140 878 l 13 878 l 13 913 l 32 913 q 113 937 89 913 q 140 1001 136 961 l 185 1001 l 185 450 l 140 450 m -22 0 l 667 1001 l 719 1001 l 29 0 l -22 0 m 632 0 l 632 144 l 350 144 l 350 182 l 611 551 l 678 551 l 678 183 l 756 183 l 756 144 l 678 144 l 678 0 l 632 0 m 397 183 l 632 183 l 632 514 l 397 183 z "},"¾":{"ha":939,"x_min":39,"x_max":924,"o":"m 215 443 q 87 494 135 443 q 40 618 39 544 l 83 618 q 119 521 82 558 q 215 483 157 483 q 313 517 275 483 q 350 603 350 551 q 335 664 350 639 q 292 703 319 689 q 225 717 264 717 l 172 717 l 172 754 l 225 754 q 311 785 282 754 q 340 863 340 817 q 306 940 340 911 q 218 968 271 968 q 124 932 161 968 q 88 835 88 896 l 46 835 q 68 929 44 890 q 131 988 92 968 q 218 1008 171 1008 q 285 999 254 1008 q 340 970 317 989 q 375 926 363 951 q 388 867 388 900 q 363 785 388 819 q 294 738 339 751 l 294 735 q 372 685 347 722 q 397 600 397 649 q 374 519 397 554 q 309 463 350 483 q 215 443 268 443 m 146 0 l 835 1001 l 888 1001 l 197 0 l 146 0 m 800 0 l 800 144 l 518 144 l 518 182 l 779 551 l 846 551 l 846 183 l 924 183 l 924 144 l 846 144 l 846 0 l 800 0 m 565 183 l 800 183 l 800 514 l 565 183 z "},"⅛":{"ha":886,"x_min":-22,"x_max":844,"o":"m 140 450 l 140 878 l 13 878 l 13 913 l 32 913 q 113 937 89 913 q 140 1001 136 961 l 185 1001 l 185 450 l 140 450 m -22 0 l 667 1001 l 719 1001 l 29 0 l -22 0 m 654 -6 q 554 13 597 -6 q 488 65 511 31 q 464 143 464 99 q 495 230 464 190 q 586 276 526 269 l 586 278 q 502 324 531 286 q 474 411 474 361 q 496 488 474 456 q 559 539 518 521 q 654 557 600 557 q 750 539 710 557 q 813 488 790 521 q 836 410 836 454 q 809 324 836 363 q 722 278 782 286 l 722 276 q 814 233 783 271 q 844 144 844 196 q 792 35 844 76 q 654 -6 740 -6 m 654 35 q 758 66 719 35 q 796 150 796 97 q 762 226 796 196 q 654 257 728 257 q 547 224 581 257 q 514 150 514 192 q 531 88 514 114 q 581 49 549 63 q 654 35 613 35 m 654 297 q 758 330 728 297 q 789 407 789 363 q 752 489 789 460 q 654 518 715 518 q 557 488 593 518 q 521 407 521 458 q 553 328 521 360 q 654 297 585 297 z "},"⅜":{"ha":1054,"x_min":39,"x_max":1013,"o":"m 215 443 q 87 494 135 443 q 40 618 39 544 l 83 618 q 119 521 82 558 q 215 483 157 483 q 313 517 275 483 q 350 603 350 551 q 335 664 350 639 q 292 703 319 689 q 225 717 264 717 l 172 717 l 172 754 l 225 754 q 311 785 282 754 q 340 863 340 817 q 306 940 340 911 q 218 968 271 968 q 124 932 161 968 q 88 835 88 896 l 46 835 q 68 929 44 890 q 131 988 92 968 q 218 1008 171 1008 q 285 999 254 1008 q 340 970 317 989 q 375 926 363 951 q 388 867 388 900 q 363 785 388 819 q 294 738 339 751 l 294 735 q 372 685 347 722 q 397 600 397 649 q 374 519 397 554 q 309 463 350 483 q 215 443 268 443 m 146 0 l 835 1001 l 888 1001 l 197 0 l 146 0 m 822 -6 q 722 13 765 -6 q 656 65 679 31 q 632 143 632 99 q 663 230 632 190 q 754 276 694 269 l 754 278 q 670 324 699 286 q 642 411 642 361 q 664 488 642 456 q 727 539 686 521 q 822 557 768 557 q 918 539 878 557 q 981 488 958 521 q 1004 410 1004 454 q 977 324 1004 363 q 890 278 950 286 l 890 276 q 982 233 951 271 q 1013 144 1013 196 q 960 35 1013 76 q 822 -6 908 -6 m 822 35 q 926 66 888 35 q 964 150 964 97 q 930 226 964 196 q 822 257 896 257 q 715 224 749 257 q 682 150 682 192 q 699 88 682 114 q 749 49 717 63 q 822 35 781 35 m 822 297 q 926 330 896 297 q 957 407 957 363 q 920 489 957 460 q 822 518 883 518 q 725 488 761 518 q 689 407 689 458 q 721 328 689 360 q 822 297 753 297 z "},"⅝":{"ha":1068,"x_min":47,"x_max":1026,"o":"m 225 443 q 96 494 144 443 q 49 618 47 544 l 93 618 q 129 522 92 558 q 226 485 167 485 q 326 525 288 485 q 365 629 365 565 q 328 734 365 693 q 229 775 290 775 q 151 754 183 775 q 103 701 118 733 l 61 701 l 72 1001 l 386 1001 l 386 961 l 113 961 l 103 750 l 106 749 q 160 797 125 779 q 238 814 194 814 q 327 790 288 814 q 390 726 367 767 q 413 631 413 685 q 388 534 413 576 q 322 467 364 492 q 225 443 281 443 m 160 0 l 849 1001 l 901 1001 l 211 0 l 160 0 m 836 -6 q 736 13 779 -6 q 669 65 693 31 q 646 143 646 99 q 677 230 646 190 q 768 276 708 269 l 768 278 q 684 324 713 286 q 656 411 656 361 q 678 488 656 456 q 741 539 700 521 q 836 557 782 557 q 932 539 892 557 q 995 488 972 521 q 1018 410 1018 454 q 991 324 1018 363 q 904 278 964 286 l 904 276 q 996 233 965 271 q 1026 144 1026 196 q 974 35 1026 76 q 836 -6 922 -6 m 836 35 q 940 66 901 35 q 978 150 978 97 q 944 226 978 196 q 836 257 910 257 q 729 224 763 257 q 696 150 696 192 q 713 88 696 114 q 763 49 731 63 q 836 35 794 35 m 836 297 q 940 330 910 297 q 971 407 971 363 q 934 489 971 460 q 836 518 897 518 q 739 488 775 518 q 703 407 703 458 q 735 328 703 360 q 836 297 767 297 z "},"⅞":{"ha":928,"x_min":13,"x_max":886,"o":"m 138 450 q 163 654 138 565 q 231 817 189 743 q 319 961 272 892 l 50 961 l 50 842 l 13 842 l 13 1001 l 374 1001 l 374 969 q 303 860 336 915 q 243 744 269 806 q 201 611 217 683 q 186 450 186 539 l 138 450 m 19 0 l 708 1001 l 761 1001 l 71 0 l 19 0 m 696 -6 q 596 13 639 -6 q 529 65 553 31 q 506 143 506 99 q 537 230 506 190 q 628 276 568 269 l 628 278 q 544 324 572 286 q 515 411 515 361 q 538 488 515 456 q 601 539 560 521 q 696 557 642 557 q 792 539 751 557 q 855 488 832 521 q 878 410 878 454 q 851 324 878 363 q 764 278 824 286 l 764 276 q 856 233 825 271 q 886 144 886 196 q 834 35 886 76 q 696 -6 782 -6 m 696 35 q 799 66 761 35 q 838 150 838 97 q 803 226 838 196 q 696 257 769 257 q 589 224 622 257 q 556 150 556 192 q 573 88 556 114 q 622 49 590 63 q 696 35 654 35 m 696 297 q 800 330 769 297 q 831 407 831 363 q 794 489 831 460 q 696 518 757 518 q 599 488 635 518 q 563 407 563 458 q 594 328 563 360 q 696 297 626 297 z "},".":{"ha":238,"x_min":88,"x_max":150,"o":"m 88 0 l 88 85 l 150 85 l 150 0 l 88 0 z "},",":{"ha":236,"x_min":64,"x_max":149,"o":"m 64 -203 l 64 -165 l 74 -164 q 107 -140 99 -161 q 115 -87 115 -118 l 115 0 l 86 0 l 86 85 l 149 85 l 149 -94 q 131 -172 149 -146 q 76 -201 114 -197 l 64 -203 z "},":":{"ha":238,"x_min":88,"x_max":150,"o":"m 88 633 l 88 718 l 150 718 l 150 633 l 88 633 m 88 0 l 88 85 l 150 85 l 150 0 l 88 0 z "},";":{"ha":236,"x_min":64,"x_max":149,"o":"m 64 -203 l 64 -165 l 74 -164 q 107 -140 99 -161 q 115 -87 115 -118 l 115 0 l 86 0 l 86 85 l 149 85 l 149 -94 q 131 -172 149 -146 q 76 -201 114 -197 l 64 -203 m 86 633 l 86 718 l 149 718 l 149 633 l 86 633 z "},"…":{"ha":713,"x_min":88,"x_max":625,"o":"m 88 0 l 88 85 l 150 85 l 150 0 l 88 0 m 325 0 l 325 85 l 388 85 l 388 0 l 325 0 m 563 0 l 563 85 l 625 85 l 625 0 l 563 0 z "},"!":{"ha":313,"x_min":125,"x_max":188,"o":"m 142 258 l 129 685 l 129 1013 l 183 1013 l 183 685 l 169 258 l 142 258 m 125 0 l 125 85 l 188 85 l 188 0 l 125 0 z "},"¡":{"ha":313,"x_min":125,"x_max":188,"o":"m 171 458 l 183 32 l 183 -296 l 129 -296 l 129 32 l 143 458 l 171 458 m 188 717 l 188 632 l 125 632 l 125 717 l 188 717 z "},"?":{"ha":725,"x_min":76,"x_max":649,"o":"m 351 235 l 351 258 q 369 358 351 314 q 414 439 386 401 q 473 512 442 476 q 532 585 504 547 q 577 668 560 624 q 594 768 594 713 q 566 887 594 840 q 487 956 538 933 q 368 979 436 979 q 190 910 253 979 q 128 735 126 842 l 76 735 q 113 888 76 822 q 215 989 149 953 q 371 1025 282 1025 q 489 1007 438 1025 q 576 955 540 989 q 630 874 611 921 q 649 768 649 826 q 631 663 649 710 q 585 577 613 617 q 526 501 557 538 q 467 429 494 465 q 421 353 439 393 q 403 264 403 313 l 403 235 l 351 235 m 347 0 l 347 85 l 410 85 l 410 0 l 347 0 z "},"¿":{"ha":725,"x_min":76,"x_max":649,"o":"m 374 483 l 374 460 q 356 360 374 404 q 311 279 339 317 q 252 206 283 242 q 193 133 221 171 q 148 50 165 94 q 131 -50 131 6 q 159 -169 131 -122 q 238 -238 188 -215 q 357 -261 289 -261 q 535 -192 472 -261 q 597 -17 599 -124 l 649 -17 q 613 -169 649 -104 q 510 -271 576 -235 q 354 -307 443 -307 q 236 -289 288 -307 q 149 -237 185 -271 q 95 -156 114 -203 q 76 -50 76 -108 q 94 55 76 8 q 140 141 113 101 q 199 217 168 181 q 258 289 231 253 q 304 365 286 325 q 322 454 322 406 l 322 483 l 374 483 m 378 718 l 378 633 l 315 633 l 315 718 l 378 718 z "},"·":{"ha":376,"x_min":88,"x_max":289,"o":"m 88 385 q 101 436 88 414 q 137 471 114 458 q 189 483 160 483 q 263 456 236 483 q 289 385 289 428 q 277 334 289 357 q 243 299 265 311 q 189 286 221 286 q 116 314 144 286 q 88 385 88 342 z "},"•":{"ha":467,"x_min":83,"x_max":385,"o":"m 83 385 q 103 461 83 428 q 157 514 122 494 q 235 533 192 533 q 344 492 303 533 q 385 385 385 450 q 366 310 385 343 q 314 257 347 276 q 235 238 281 238 q 157 257 192 238 q 103 310 122 276 q 83 385 83 343 z "},"*":{"ha":450,"x_min":49,"x_max":401,"o":"m 204 629 l 204 711 l 217 806 l 140 750 l 69 708 l 49 743 l 119 785 l 203 822 l 119 860 l 50 899 l 69 933 l 140 894 l 217 840 l 204 933 l 204 1013 l 244 1013 l 244 933 l 233 840 l 311 894 l 382 933 l 400 899 l 331 860 l 249 822 l 331 785 l 401 743 l 382 708 l 311 750 l 233 806 l 244 711 l 244 629 l 204 629 z "},"#":{"ha":888,"x_min":49,"x_max":839,"o":"m 233 0 l 233 313 l 49 313 l 49 351 l 233 351 l 233 694 l 49 694 l 49 732 l 233 732 l 233 1013 l 278 1013 l 278 732 l 618 732 l 618 1013 l 663 1013 l 663 732 l 839 732 l 839 694 l 663 694 l 663 351 l 839 351 l 839 313 l 663 313 l 663 0 l 618 0 l 618 313 l 278 313 l 278 0 l 233 0 m 278 351 l 618 351 l 618 694 l 278 694 l 278 351 z "},"/":{"ha":617,"x_min":42,"x_max":546,"o":"m 42 -112 l 496 1013 l 546 1013 l 96 -112 l 42 -112 z "},"\\":{"ha":617,"x_min":71,"x_max":575,"o":"m 521 -112 l 71 1013 l 121 1013 l 575 -112 l 521 -112 z "},"(":{"ha":428,"x_min":78,"x_max":386,"o":"m 335 -232 q 195 -51 253 -157 q 108 181 138 56 q 78 435 78 306 q 95 627 78 532 q 145 809 113 722 q 226 971 178 896 q 335 1101 274 1046 l 386 1101 q 277 972 325 1046 q 197 810 229 897 q 147 627 164 722 q 129 435 129 532 q 162 171 129 297 q 252 -59 194 44 q 386 -232 310 -162 l 335 -232 z "},")":{"ha":428,"x_min":42,"x_max":350,"o":"m 93 1101 q 233 920 175 1026 q 320 689 290 814 q 350 435 350 564 q 333 242 350 338 q 283 60 315 147 q 202 -101 250 -26 q 93 -232 154 -176 l 42 -232 q 151 -102 103 -176 q 231 60 199 -28 q 281 242 264 147 q 299 435 299 338 q 266 699 299 572 q 176 928 233 825 q 42 1101 118 1032 l 93 1101 z "},"{":{"ha":482,"x_min":56,"x_max":468,"o":"m 243 -232 q 200 -215 214 -232 q 186 -172 186 -199 l 186 290 q 158 378 186 347 q 99 408 131 408 l 56 408 l 56 460 l 99 460 q 158 490 131 460 q 186 579 186 521 l 186 1042 q 200 1085 186 1068 q 243 1101 214 1101 l 468 1101 l 468 1057 l 236 1057 l 236 579 q 206 477 236 515 q 139 438 175 439 l 139 432 q 207 390 178 431 q 236 289 236 350 l 236 -187 l 468 -187 l 468 -232 l 243 -232 z "},"}":{"ha":482,"x_min":14,"x_max":426,"o":"m 239 1101 q 282 1085 268 1101 q 296 1042 296 1068 l 296 579 q 324 492 296 522 q 383 461 351 461 l 426 461 l 426 410 l 383 410 q 324 379 351 410 q 296 290 296 349 l 296 -172 q 282 -215 296 -199 q 239 -232 268 -232 l 14 -232 l 14 -187 l 246 -187 l 246 290 q 276 392 246 354 q 343 432 307 431 l 343 438 q 275 479 304 439 q 246 581 246 519 l 246 1057 l 14 1057 l 14 1101 l 239 1101 z "},"[":{"ha":439,"x_min":143,"x_max":425,"o":"m 143 -232 l 143 1101 l 425 1101 l 425 1057 l 193 1057 l 193 -187 l 425 -187 l 425 -232 l 143 -232 z "},"]":{"ha":439,"x_min":14,"x_max":296,"o":"m 296 1101 l 296 -232 l 14 -232 l 14 -187 l 246 -187 l 246 1057 l 14 1057 l 14 1101 l 296 1101 z "},"-":{"ha":444,"x_min":42,"x_max":403,"o":"m 42 336 l 42 382 l 403 382 l 403 336 l 42 336 z "},"–":{"ha":576,"x_min":42,"x_max":535,"o":"m 42 336 l 42 382 l 535 382 l 535 336 l 42 336 z "},"—":{"ha":799,"x_min":42,"x_max":757,"o":"m 42 336 l 42 382 l 757 382 l 757 336 l 42 336 z "},"_":{"ha":458,"x_min":0,"x_max":458,"o":"m 0 -46 l 0 0 l 458 0 l 458 -46 l 0 -46 z "},"‚":{"ha":236,"x_min":64,"x_max":149,"o":"m 64 -203 l 64 -165 l 74 -164 q 107 -140 99 -161 q 115 -87 115 -118 l 115 0 l 86 0 l 86 85 l 149 85 l 149 -94 q 131 -172 149 -146 q 76 -201 114 -197 l 64 -203 z "},"„":{"ha":415,"x_min":64,"x_max":328,"o":"m 64 -203 l 64 -165 l 74 -164 q 107 -140 99 -161 q 115 -87 115 -118 l 115 0 l 86 0 l 86 85 l 149 85 l 149 -94 q 131 -172 149 -146 q 76 -201 114 -197 l 64 -203 m 243 -203 l 243 -165 l 253 -164 q 286 -140 278 -161 q 294 -87 294 -118 l 294 0 l 265 0 l 265 85 l 328 85 l 328 -94 q 310 -172 328 -146 q 256 -201 293 -197 l 243 -203 z "},"“":{"ha":415,"x_min":88,"x_max":351,"o":"m 351 1013 l 351 975 l 342 974 q 308 949 317 971 q 300 897 300 928 l 300 810 l 329 810 l 329 725 l 267 725 l 267 904 q 284 981 267 956 q 339 1011 301 1007 l 351 1013 m 172 1013 l 172 975 l 163 974 q 129 949 138 971 q 121 897 121 928 l 121 810 l 150 810 l 150 725 l 88 725 l 88 904 q 105 981 88 956 q 160 1011 122 1007 l 172 1013 z "},"”":{"ha":415,"x_min":64,"x_max":328,"o":"m 64 725 l 64 763 l 74 764 q 107 788 99 767 q 115 840 115 810 l 115 928 l 86 928 l 86 1013 l 149 1013 l 149 833 q 131 756 149 782 q 76 726 114 731 l 64 725 m 243 725 l 243 763 l 253 764 q 286 788 278 767 q 294 840 294 810 l 294 928 l 265 928 l 265 1013 l 328 1013 l 328 833 q 310 756 328 782 q 256 726 293 731 l 243 725 z "},"‘":{"ha":236,"x_min":88,"x_max":172,"o":"m 172 1013 l 172 975 l 163 974 q 129 949 138 971 q 121 897 121 928 l 121 810 l 150 810 l 150 725 l 88 725 l 88 904 q 105 981 88 956 q 160 1011 122 1007 l 172 1013 z "},"’":{"ha":236,"x_min":64,"x_max":149,"o":"m 64 725 l 64 763 l 74 764 q 107 788 99 767 q 115 840 115 810 l 115 928 l 86 928 l 86 1013 l 149 1013 l 149 833 q 131 756 149 782 q 76 726 114 731 l 64 725 z "},"«":{"ha":511,"x_min":56,"x_max":469,"o":"m 222 0 l 56 360 l 222 718 l 268 718 l 106 360 l 268 0 l 222 0 m 424 0 l 257 360 l 424 718 l 469 718 l 307 360 l 469 0 l 424 0 z "},"»":{"ha":511,"x_min":42,"x_max":456,"o":"m 289 718 l 456 358 l 289 0 l 243 0 l 406 358 l 243 718 l 289 718 m 88 718 l 254 358 l 88 0 l 42 0 l 204 358 l 42 718 l 88 718 z "},"‹":{"ha":310,"x_min":56,"x_max":268,"o":"m 222 0 l 56 360 l 222 718 l 268 718 l 106 360 l 268 0 l 222 0 z "},"›":{"ha":310,"x_min":42,"x_max":254,"o":"m 88 718 l 254 358 l 88 0 l 42 0 l 204 358 l 42 718 l 88 718 z "},"\"":{"ha":450,"x_min":90,"x_max":360,"o":"m 128 628 l 100 628 l 90 840 l 90 1013 l 136 1013 l 136 840 l 128 628 m 351 628 l 324 628 l 314 840 l 314 1013 l 360 1013 l 360 840 l 351 628 z "},"'":{"ha":226,"x_min":90,"x_max":136,"o":"m 128 628 l 100 628 l 90 840 l 90 1013 l 136 1013 l 136 840 l 128 628 z "}," ":{"ha":332,"x_min":0,"x_max":0,"o":""}," ":{"ha":332,"x_min":0,"x_max":0,"o":""},"\r":{"ha":354,"x_min":0,"x_max":0,"o":""},"€":{"ha":1150,"x_min":64,"x_max":1086,"o":"m 643 -11 q 447 26 535 -11 q 295 133 358 64 q 198 296 232 201 q 164 506 164 390 q 198 716 164 621 q 296 880 232 811 q 447 985 360 949 q 643 1022 535 1022 q 854 981 761 1022 q 1008 865 947 940 q 1086 686 1068 790 l 1031 686 q 964 835 1015 771 q 831 935 913 899 q 643 972 750 972 q 417 914 513 972 q 272 751 322 856 q 221 506 221 646 q 250 315 221 400 q 334 167 279 229 q 467 72 389 106 q 643 39 544 39 q 832 75 750 39 q 965 177 914 111 q 1031 331 1017 243 l 1086 329 q 1013 149 1072 225 q 858 31 953 72 q 643 -11 764 -11 m 64 347 l 64 390 l 636 390 l 629 347 l 64 347 m 64 622 l 64 665 l 676 665 l 669 622 l 64 622 z "},"₿":{"ha":931,"x_min":143,"x_max":863,"o":"m 143 0 l 143 1013 l 539 1013 q 699 980 633 1013 q 801 890 765 947 q 836 754 836 832 q 817 651 836 699 q 760 571 799 604 q 660 524 721 538 l 660 519 q 772 472 728 507 q 840 388 817 438 q 863 278 863 338 q 823 131 863 193 q 710 34 783 68 q 538 0 638 0 l 143 0 m 317 -118 l 317 31 l 361 31 l 361 -118 l 317 -118 m 525 -118 l 525 31 l 569 31 l 569 -118 l 525 -118 m 196 50 l 538 50 q 739 115 671 50 q 807 281 807 179 q 743 438 807 381 q 563 494 679 494 l 196 494 l 196 50 m 196 543 l 560 543 q 683 569 633 543 q 758 640 732 594 q 783 747 783 686 q 716 906 783 849 q 538 964 649 964 l 196 964 l 196 543 m 317 992 l 317 1131 l 361 1131 l 361 992 l 317 992 m 525 992 l 525 1131 l 569 1131 l 569 992 l 525 992 z "},"¢":{"ha":765,"x_min":64,"x_max":701,"o":"m 399 -11 q 262 15 324 -11 q 156 90 200 42 q 88 206 111 139 q 64 357 64 274 q 106 551 64 468 q 224 682 147 635 q 403 729 300 729 q 545 699 482 729 q 649 616 608 669 q 697 492 689 563 l 647 492 q 601 594 636 553 q 515 658 567 636 q 400 681 463 681 q 249 640 313 681 q 150 526 185 599 q 115 357 115 453 q 151 187 115 258 q 250 76 186 115 q 399 38 314 38 q 522 63 468 38 q 610 134 576 88 q 650 242 643 181 l 701 242 q 653 108 693 165 q 547 20 613 51 q 399 -11 482 -11 m 363 -118 l 363 836 l 404 836 l 404 -118 l 363 -118 z "},"¤":{"ha":767,"x_min":35,"x_max":732,"o":"m 69 135 l 35 167 l 183 321 q 141 394 157 351 q 125 483 125 436 q 142 575 125 532 q 185 650 158 618 l 35 801 l 69 836 l 221 682 q 292 720 251 706 q 383 735 333 735 q 472 722 429 735 q 546 682 514 708 l 697 836 l 732 801 l 581 650 q 624 575 608 618 q 639 483 639 532 q 624 396 639 439 q 579 321 608 353 l 732 167 l 697 135 l 546 289 q 472 247 514 263 q 383 232 429 232 q 295 247 338 232 q 219 288 253 261 l 69 135 m 383 282 q 490 308 443 282 q 563 381 536 335 q 589 485 589 426 q 562 590 589 544 q 489 663 535 636 q 383 689 443 689 q 277 663 324 689 q 203 590 231 636 q 176 485 176 544 q 203 381 176 426 q 276 308 229 335 q 383 282 324 282 z "},"$":{"ha":867,"x_min":76,"x_max":790,"o":"m 439 -11 q 235 31 314 -11 q 117 146 156 72 q 76 313 79 219 l 133 313 q 169 165 136 228 q 268 69 201 103 q 436 36 335 36 q 652 90 569 36 q 735 254 735 143 q 719 351 735 311 q 667 418 703 390 q 575 465 632 446 q 436 500 518 485 q 290 536 353 517 q 185 584 228 556 q 122 656 143 613 q 100 764 100 700 q 139 900 100 842 q 251 991 178 958 q 426 1024 324 1024 q 607 988 535 1024 q 717 887 679 951 q 757 735 756 822 l 701 735 q 665 867 699 813 q 569 949 631 921 q 421 976 508 976 q 278 951 338 976 q 188 879 219 925 q 157 771 157 833 q 187 659 157 699 q 283 596 217 619 q 457 551 349 572 q 586 521 526 539 q 692 472 646 503 q 765 389 739 440 q 790 257 790 338 q 749 116 790 176 q 630 22 708 56 q 439 -11 551 -11 m 411 -118 l 411 1131 l 457 1131 l 457 -118 l 411 -118 z "},"₺":{"ha":800,"x_min":35,"x_max":756,"o":"m 176 0 l 176 453 l 35 397 l 35 446 l 176 503 l 176 675 l 35 618 l 35 665 l 176 724 l 176 1013 l 229 1013 l 229 743 l 554 875 l 554 826 l 229 694 l 229 522 l 554 654 l 554 606 l 229 474 l 229 50 q 475 98 376 50 q 631 234 574 146 q 704 440 688 322 l 756 440 q 698 248 740 331 q 589 110 656 165 q 432 27 522 54 q 231 0 342 0 l 176 0 z "},"₹":{"ha":899,"x_min":143,"x_max":901,"o":"m 740 0 q 726 23 735 4 q 714 63 717 42 l 683 274 q 642 385 674 347 q 567 435 611 422 q 474 449 524 449 l 143 449 l 143 499 l 476 499 q 672 553 607 499 q 744 704 738 607 l 143 704 l 143 753 l 744 753 q 702 873 736 826 q 614 942 668 919 q 488 964 560 964 l 143 964 l 143 1013 l 901 1013 l 901 964 l 661 964 l 661 960 q 758 881 718 939 q 800 751 797 824 l 901 751 l 901 704 l 801 704 q 770 597 797 644 q 697 517 743 549 q 589 472 650 485 l 589 464 q 688 406 651 451 q 735 286 725 360 l 761 94 q 776 38 767 56 q 796 15 786 19 l 796 0 l 740 0 z "},"₪":{"ha":1086,"x_min":143,"x_max":943,"o":"m 482 0 q 431 9 451 0 q 399 39 410 18 q 389 93 389 60 l 389 793 l 446 793 l 446 51 l 889 51 l 889 1013 l 943 1013 l 943 0 l 482 0 m 143 0 l 143 1013 l 606 1013 q 656 1003 636 1013 q 687 975 676 994 q 697 921 697 956 l 697 221 l 640 221 l 640 961 l 197 961 l 197 0 l 143 0 z "},"£":{"ha":806,"x_min":31,"x_max":744,"o":"m 31 0 l 31 50 l 151 50 l 151 479 l 31 479 l 31 528 l 151 528 l 151 746 q 187 895 151 833 q 287 990 222 957 q 439 1022 351 1022 q 588 990 525 1022 q 686 896 651 957 q 721 747 721 835 l 721 706 l 671 706 l 671 742 q 642 869 671 818 q 562 948 614 921 q 438 975 510 975 q 262 913 322 975 q 201 743 201 850 l 201 528 l 532 528 l 532 479 l 201 479 l 201 50 l 694 50 l 694 247 l 744 247 l 744 0 l 31 0 z "},"¥":{"ha":763,"x_min":7,"x_max":754,"o":"m 357 0 l 357 221 l 92 221 l 92 267 l 357 267 l 357 432 l 92 432 l 92 478 l 329 478 l 7 1013 l 64 1013 l 379 481 l 383 481 l 697 1013 l 754 1013 l 435 478 l 668 478 l 668 432 l 407 432 l 407 267 l 668 267 l 668 221 l 407 221 l 407 0 l 357 0 z "},"+":{"ha":761,"x_min":49,"x_max":713,"o":"m 357 169 l 357 479 l 49 479 l 49 524 l 357 524 l 357 833 l 404 833 l 404 524 l 713 524 l 713 479 l 404 479 l 404 169 l 357 169 z "},"−":{"ha":928,"x_min":132,"x_max":796,"o":"m 132 479 l 132 524 l 796 524 l 796 479 l 132 479 z "},"×":{"ha":808,"x_min":133,"x_max":675,"o":"m 167 231 l 133 264 l 371 501 l 133 739 l 167 772 l 404 535 l 642 772 l 675 739 l 438 501 l 675 264 l 642 231 l 404 468 l 167 231 z "},"÷":{"ha":906,"x_min":121,"x_max":785,"o":"m 121 479 l 121 524 l 785 524 l 785 479 l 121 479 m 422 256 l 422 340 l 485 340 l 485 256 l 422 256 m 422 663 l 422 747 l 485 747 l 485 663 l 422 663 z "},"=":{"ha":928,"x_min":132,"x_max":796,"o":"m 132 632 l 132 676 l 796 676 l 796 632 l 132 632 m 132 326 l 132 371 l 796 371 l 796 326 l 132 326 z "},"≠":{"ha":933,"x_min":135,"x_max":799,"o":"m 253 136 l 351 326 l 135 326 l 135 371 l 375 371 l 510 632 l 135 632 l 135 676 l 533 676 l 632 867 l 682 867 l 583 676 l 799 676 l 799 632 l 561 632 l 425 371 l 799 371 l 799 326 l 403 326 l 304 136 l 253 136 z "},">":{"ha":953,"x_min":143,"x_max":811,"o":"m 143 185 l 143 235 l 765 499 l 765 504 l 143 768 l 143 818 l 811 532 l 811 471 l 143 185 z "},"<":{"ha":953,"x_min":143,"x_max":811,"o":"m 811 185 l 143 471 l 143 532 l 811 818 l 811 768 l 189 504 l 189 499 l 811 235 l 811 185 z "},"≥":{"ha":953,"x_min":143,"x_max":811,"o":"m 143 185 l 143 235 l 765 499 l 765 504 l 143 768 l 143 818 l 811 532 l 811 471 l 143 185 m 143 0 l 143 44 l 811 44 l 811 0 l 143 0 z "},"≤":{"ha":953,"x_min":143,"x_max":811,"o":"m 811 185 l 143 471 l 143 532 l 811 818 l 811 768 l 189 504 l 189 499 l 811 235 l 811 185 m 143 0 l 143 44 l 811 44 l 811 0 l 143 0 z "},"±":{"ha":850,"x_min":93,"x_max":757,"o":"m 401 225 l 401 507 l 93 507 l 93 551 l 401 551 l 401 833 l 449 833 l 449 551 l 757 551 l 757 507 l 449 507 l 449 225 l 401 225 m 93 0 l 93 44 l 757 44 l 757 0 l 93 0 z "},"≈":{"ha":889,"x_min":219,"x_max":671,"o":"m 551 581 q 490 590 521 581 q 430 611 460 599 q 374 633 400 624 q 325 642 347 642 q 278 620 294 642 q 265 558 261 599 l 224 558 q 234 642 221 611 q 272 686 247 672 q 325 700 296 700 q 382 690 353 700 q 440 667 411 681 q 498 644 469 654 q 553 633 526 633 q 608 656 589 633 q 626 722 628 679 l 668 722 q 664 660 671 688 q 642 616 657 633 q 605 590 628 599 q 551 581 582 581 m 551 299 q 491 309 522 299 q 430 333 460 319 q 374 356 400 346 q 325 365 347 365 q 291 355 306 365 q 269 326 276 344 q 265 279 263 307 l 224 279 q 236 372 219 340 q 278 413 253 403 q 326 424 304 424 q 383 414 354 424 q 440 391 411 404 q 498 367 469 378 q 553 357 526 357 q 608 379 589 357 q 626 446 628 401 l 668 446 q 663 377 671 406 q 638 331 654 349 q 599 306 621 314 q 551 299 576 299 z "},"¬":{"ha":924,"x_min":132,"x_max":792,"o":"m 747 213 l 747 507 l 132 507 l 132 551 l 792 551 l 792 213 l 747 213 z "},"~":{"ha":710,"x_min":129,"x_max":581,"o":"m 133 418 q 146 510 129 479 q 188 552 163 542 q 236 563 214 563 q 292 553 264 563 q 350 530 321 543 q 408 506 379 517 q 463 496 436 496 q 518 518 499 496 q 536 585 538 540 l 578 585 q 572 516 581 544 q 547 470 564 488 q 508 445 531 453 q 461 438 486 438 q 401 448 432 438 q 340 472 369 458 q 283 494 310 485 q 235 504 257 504 q 188 481 206 504 q 175 418 171 458 l 133 418 z "},"^":{"ha":519,"x_min":50,"x_max":468,"o":"m 50 660 l 232 1013 l 285 1013 l 468 660 l 411 660 l 258 960 l 104 660 l 50 660 z "},"∞":{"ha":1219,"x_min":64,"x_max":1156,"o":"m 314 232 q 180 268 236 232 q 94 367 124 304 q 64 506 64 429 q 94 643 64 581 q 179 744 124 706 q 313 782 235 782 q 440 749 386 782 q 534 662 493 715 q 611 547 575 608 q 689 662 647 608 q 784 749 731 715 q 911 782 838 782 q 1044 743 989 782 q 1127 642 1099 704 q 1156 506 1156 579 q 1127 372 1156 435 q 1044 271 1099 310 q 911 232 989 232 q 787 263 840 232 q 692 349 733 294 q 611 468 650 403 q 533 353 575 407 q 438 265 492 299 q 314 232 385 232 m 313 281 q 449 335 389 281 q 581 507 510 390 q 451 676 510 619 q 311 732 393 732 q 208 703 253 732 q 139 622 164 674 q 114 506 114 571 q 169 342 114 404 q 313 281 224 281 m 910 281 q 1014 310 969 281 q 1083 392 1058 340 q 1108 506 1108 443 q 1083 622 1108 571 q 1014 702 1058 672 q 910 732 969 732 q 812 707 856 732 q 728 632 768 682 q 640 507 688 582 q 729 381 689 432 q 813 306 769 331 q 910 281 856 281 z "},"∅":{"ha":1121,"x_min":49,"x_max":1072,"o":"m 561 -14 q 363 24 456 -14 q 199 132 269 63 q 89 297 129 201 q 49 508 49 393 q 89 717 49 622 q 199 881 129 811 q 363 988 269 950 q 561 1026 456 1026 q 758 988 665 1026 q 922 881 851 950 q 1032 717 992 811 q 1072 508 1072 622 q 1032 297 1072 393 q 922 132 992 201 q 758 24 851 63 q 561 -14 665 -14 m 561 26 q 740 63 656 26 q 888 163 824 99 q 990 316 953 228 q 1026 508 1026 404 q 1013 628 1026 571 q 974 735 999 685 l 168 244 q 335 85 232 144 q 561 26 439 26 m 147 281 l 951 772 q 785 928 889 871 q 561 986 682 986 q 382 951 467 986 q 233 851 297 915 q 131 699 168 786 q 94 508 94 613 q 108 388 94 446 q 147 281 122 331 z "},"∫":{"ha":493,"x_min":14,"x_max":479,"o":"m 14 -210 l 14 -161 l 219 -161 l 219 936 q 237 992 219 971 q 286 1013 254 1013 l 479 1013 l 479 963 l 272 963 l 272 -137 q 260 -187 272 -165 q 206 -210 247 -210 l 14 -210 z "},"∏":{"ha":1067,"x_min":143,"x_max":924,"o":"m 143 -210 l 143 1013 l 924 1013 l 924 -210 l 871 -210 l 871 963 l 196 963 l 196 -210 l 143 -210 z "},"∑":{"ha":949,"x_min":143,"x_max":806,"o":"m 143 -210 l 143 -154 l 536 400 l 536 404 l 143 957 l 143 1013 l 806 1013 l 806 965 l 461 965 l 206 965 l 206 961 l 606 401 l 206 -158 l 206 -162 l 461 -162 l 806 -162 l 806 -210 l 143 -210 z "},"√":{"ha":804,"x_min":14,"x_max":790,"o":"m 338 -210 l 118 465 l 14 465 l 14 513 l 160 513 l 363 -125 l 367 -125 l 732 1013 l 790 1013 l 392 -210 l 338 -210 z "},"%":{"ha":1163,"x_min":63,"x_max":1100,"o":"m 232 0 l 872 1013 l 931 1013 l 289 0 l 232 0 m 256 444 q 153 477 197 444 q 86 573 110 510 q 63 726 63 636 q 87 881 63 818 q 155 975 111 943 q 256 1007 199 1007 q 356 975 313 1007 q 422 881 399 943 q 446 726 446 818 q 422 572 446 635 q 355 477 397 510 q 256 444 313 444 m 256 489 q 331 516 300 489 q 378 596 361 543 q 394 726 394 649 q 378 857 394 804 q 331 936 361 910 q 256 963 300 963 q 179 935 211 963 q 131 856 147 908 q 114 726 114 804 q 124 624 114 668 q 151 549 133 579 q 196 504 169 519 q 256 489 222 489 m 910 -7 q 808 25 851 -7 q 740 120 764 57 q 717 275 717 183 q 740 429 717 367 q 808 524 764 492 q 910 556 851 556 q 1010 524 967 556 q 1076 428 1053 492 q 1100 274 1100 365 q 1076 120 1100 183 q 1009 25 1051 57 q 910 -7 967 -7 m 910 38 q 983 64 953 38 q 1031 143 1014 90 q 1047 274 1047 196 q 1031 406 1047 353 q 983 485 1014 458 q 910 511 953 511 q 833 485 865 511 q 785 406 801 458 q 768 274 768 353 q 785 143 768 196 q 833 64 801 90 q 910 38 865 38 z "},"‰":{"ha":1635,"x_min":63,"x_max":1572,"o":"m 232 0 l 872 1013 l 931 1013 l 289 0 l 232 0 m 256 444 q 153 477 197 444 q 86 573 110 510 q 63 726 63 636 q 87 881 63 818 q 155 975 111 943 q 256 1007 199 1007 q 356 975 313 1007 q 422 881 399 943 q 446 726 446 818 q 422 572 446 635 q 355 477 397 510 q 256 444 313 444 m 256 489 q 331 516 300 489 q 378 596 361 543 q 394 726 394 649 q 378 857 394 804 q 331 936 361 910 q 256 963 300 963 q 179 935 211 963 q 131 856 147 908 q 114 726 114 804 q 124 624 114 668 q 151 549 133 579 q 196 504 169 519 q 256 489 222 489 m 910 -7 q 808 25 851 -7 q 740 120 764 57 q 717 275 717 183 q 740 429 717 367 q 808 524 764 492 q 910 556 851 556 q 1010 524 967 556 q 1076 428 1053 492 q 1100 274 1100 365 q 1076 120 1100 183 q 1009 25 1051 57 q 910 -7 967 -7 m 910 38 q 983 64 953 38 q 1031 143 1014 90 q 1047 274 1047 196 q 1031 406 1047 353 q 983 485 1014 458 q 910 511 953 511 q 833 485 865 511 q 785 406 801 458 q 768 274 768 353 q 785 143 768 196 q 833 64 801 90 q 910 38 865 38 m 1382 -7 q 1280 25 1324 -7 q 1213 120 1236 57 q 1189 275 1189 183 q 1213 429 1189 367 q 1280 524 1236 492 q 1382 556 1324 556 q 1482 524 1439 556 q 1549 428 1525 492 q 1572 274 1572 365 q 1548 120 1572 183 q 1481 25 1524 57 q 1382 -7 1439 -7 m 1382 38 q 1456 64 1425 38 q 1503 143 1486 90 q 1519 274 1519 196 q 1503 406 1519 353 q 1456 485 1486 458 q 1382 511 1425 511 q 1306 485 1338 511 q 1257 406 1274 458 q 1240 274 1240 353 q 1257 143 1240 196 q 1306 64 1274 90 q 1382 38 1338 38 z "},"↑":{"ha":713,"x_min":103,"x_max":611,"o":"m 332 132 l 332 803 l 103 633 l 103 692 l 357 881 l 611 692 l 611 633 l 382 803 l 382 132 l 332 132 z "},"→":{"ha":1036,"x_min":147,"x_max":896,"o":"m 147 532 l 818 532 l 649 761 l 707 761 l 896 507 l 707 253 l 649 253 l 818 482 l 147 482 l 147 532 z "},"↓":{"ha":682,"x_min":101,"x_max":610,"o":"m 331 881 l 381 881 l 381 210 l 610 379 l 610 321 l 356 132 l 101 321 l 101 379 l 331 210 l 331 881 z "},"←":{"ha":1036,"x_min":140,"x_max":889,"o":"m 889 532 l 889 482 l 218 482 l 388 253 l 329 253 l 140 507 l 329 761 l 388 761 l 218 532 l 889 532 z "},"↔":{"ha":1151,"x_min":111,"x_max":1040,"o":"m 300 253 l 111 507 l 300 761 l 358 761 l 189 532 l 963 532 l 793 761 l 851 761 l 1040 507 l 851 253 l 793 253 l 963 482 l 189 482 l 358 253 l 300 253 z "},"☹":{"ha":1138,"x_min":49,"x_max":1089,"o":"m 569 -14 q 362 24 457 -14 q 197 130 267 61 q 88 294 126 199 q 49 508 49 390 q 88 720 49 625 q 197 884 126 815 q 362 990 267 953 q 569 1026 457 1026 q 777 990 682 1026 q 942 884 872 953 q 1051 720 1013 815 q 1089 508 1089 625 q 1051 294 1089 390 q 942 130 1013 199 q 777 24 872 61 q 569 -14 682 -14 m 235 217 q 356 379 268 319 q 567 439 443 439 q 780 379 693 439 q 901 217 867 319 l 854 217 q 747 347 824 299 q 567 396 669 396 q 390 347 467 396 q 281 217 313 299 l 235 217 m 569 26 q 814 87 707 26 q 982 256 921 147 q 1043 508 1043 364 q 982 759 1043 651 q 814 926 921 867 q 569 986 707 986 q 324 926 432 986 q 156 759 217 867 q 94 508 94 651 q 156 256 94 364 q 324 87 217 147 q 569 26 432 26 m 444 544 q 388 571 407 544 q 369 636 369 597 q 391 706 369 683 q 444 729 413 729 q 501 703 483 729 q 519 636 519 676 q 499 567 519 589 q 444 544 478 544 m 693 544 q 638 571 657 544 q 618 636 618 597 q 640 706 618 683 q 693 729 663 729 q 751 702 732 729 q 769 636 769 675 q 749 567 769 589 q 693 544 728 544 z "},"☺":{"ha":1138,"x_min":49,"x_max":1089,"o":"m 569 -14 q 362 24 457 -14 q 197 130 267 61 q 88 294 126 199 q 49 508 49 390 q 88 720 49 625 q 197 884 126 815 q 362 990 267 953 q 569 1026 457 1026 q 777 990 682 1026 q 942 884 872 953 q 1051 720 1013 815 q 1089 508 1089 625 q 1051 294 1089 390 q 942 130 1013 199 q 777 24 872 61 q 569 -14 682 -14 m 567 146 q 398 181 472 146 q 278 281 324 217 q 219 432 232 346 l 171 432 l 171 453 l 322 453 l 322 432 l 265 432 q 316 305 275 360 q 422 219 357 250 q 567 189 488 189 q 714 219 649 189 q 820 305 779 250 q 869 432 861 360 l 815 432 l 815 453 l 967 453 l 967 432 l 917 432 q 858 281 904 346 q 738 181 811 217 q 567 146 664 146 m 569 26 q 814 87 707 26 q 982 256 921 147 q 1043 508 1043 364 q 982 759 1043 651 q 814 926 921 867 q 569 986 707 986 q 324 926 432 986 q 156 759 217 867 q 94 508 94 651 q 156 256 94 364 q 324 87 217 147 q 569 26 432 26 m 444 544 q 388 571 407 544 q 369 636 369 597 q 391 706 369 683 q 444 729 413 729 q 501 703 483 729 q 519 636 519 676 q 499 567 519 589 q 444 544 478 544 m 693 544 q 638 571 657 544 q 618 636 618 597 q 640 706 618 683 q 693 729 663 729 q 751 702 732 729 q 769 636 769 675 q 749 567 769 589 q 693 544 728 544 z "},"✓":{"ha":1283,"x_min":161,"x_max":1122,"o":"m 419 190 l 161 540 l 197 572 l 425 260 l 1090 815 l 1122 778 l 419 190 z "},"@":{"ha":1240,"x_min":64,"x_max":1176,"o":"m 633 -140 q 403 -99 507 -140 q 223 17 299 -58 q 106 199 147 93 q 64 433 64 304 q 105 675 64 567 q 223 862 146 783 q 406 983 300 940 q 640 1025 511 1025 q 856 988 758 1025 q 1026 883 954 951 q 1137 720 1097 815 q 1176 510 1176 625 q 1147 324 1176 406 q 1061 194 1117 242 q 931 146 1006 146 q 853 165 885 146 q 807 222 822 185 q 792 310 792 258 l 788 310 q 709 186 763 225 q 600 147 656 147 q 503 175 549 147 q 428 260 457 203 q 400 408 400 318 q 428 568 400 499 q 506 677 456 638 q 621 717 556 717 q 729 679 682 717 q 793 569 776 642 l 797 569 l 808 700 l 851 700 l 828 344 q 835 255 825 290 q 869 202 846 219 q 929 185 893 185 q 1033 226 988 185 q 1103 340 1078 267 q 1129 507 1129 413 q 1067 756 1129 649 q 895 924 1006 864 q 638 985 785 985 q 422 945 518 985 q 256 833 325 906 q 149 659 186 760 q 113 436 113 558 q 147 226 113 324 q 247 55 181 128 q 409 -59 313 -18 q 629 -100 506 -100 q 810 -75 728 -100 q 949 -6 893 -50 l 965 -43 q 867 -98 924 -76 q 749 -130 810 -119 q 633 -140 688 -140 m 604 189 q 701 222 660 189 q 766 314 742 256 q 793 449 790 372 q 771 575 792 524 q 714 653 750 626 q 629 679 678 679 q 531 644 571 679 q 469 549 490 610 q 447 411 447 489 q 467 287 447 336 q 522 213 486 238 q 604 189 557 189 z "},"&":{"ha":971,"x_min":86,"x_max":960,"o":"m 378 -14 q 235 15 301 -14 q 127 103 168 44 q 86 253 86 163 q 115 378 86 319 q 201 488 143 438 q 344 574 258 538 l 344 558 q 274 644 304 604 q 228 724 244 683 q 211 814 211 765 q 238 923 211 875 q 317 999 265 971 q 438 1026 368 1026 q 546 1001 499 1026 q 621 929 593 975 q 649 824 649 883 q 618 708 649 760 q 534 620 588 657 q 411 560 481 583 l 411 554 l 700 229 q 731 318 719 267 q 750 424 743 369 q 757 524 757 478 l 960 524 l 960 485 l 804 485 q 792 380 801 436 q 766 272 782 324 q 726 183 750 221 l 722 206 l 906 0 l 843 0 l 363 539 q 240 465 290 508 q 163 368 189 421 q 136 256 136 315 q 169 131 136 181 q 258 57 201 82 q 383 32 314 32 q 565 78 490 32 q 682 196 640 124 l 715 163 q 571 29 660 72 q 378 -14 482 -14 m 379 588 l 385 588 q 498 644 450 611 q 573 721 546 676 q 600 819 600 765 q 555 935 600 889 q 435 982 510 982 q 340 959 379 982 q 281 898 301 936 q 261 813 261 860 q 276 732 261 768 q 319 662 292 696 q 379 588 346 628 z "},"¶":{"ha":936,"x_min":14,"x_max":793,"o":"m 265 -210 l 265 564 q 79 626 144 563 q 14 793 14 689 q 82 956 14 899 q 265 1013 150 1013 l 793 1013 l 793 963 l 668 963 l 668 -210 l 615 -210 l 615 963 l 318 963 l 318 -210 l 265 -210 z "},"©":{"ha":1140,"x_min":49,"x_max":1092,"o":"m 49 504 q 114 776 49 660 q 297 958 179 893 q 569 1022 414 1022 q 844 958 726 1022 q 1026 776 961 893 q 1092 504 1092 660 q 1026 233 1092 350 q 844 51 961 117 q 569 -14 726 -14 q 297 51 414 -14 q 114 233 179 117 q 49 504 49 350 m 96 504 q 156 256 96 363 q 322 89 215 149 q 569 29 429 29 q 818 89 711 29 q 985 256 925 149 q 1044 504 1044 363 q 985 753 1044 646 q 818 921 925 861 q 569 981 711 981 q 322 921 429 981 q 156 753 215 861 q 96 504 96 646 m 308 503 q 341 651 308 588 q 433 751 374 715 q 572 788 493 788 q 684 765 635 788 q 765 700 733 742 q 801 604 796 658 l 754 604 q 688 709 740 675 q 569 743 635 743 q 456 713 504 743 q 383 628 408 682 q 357 503 357 574 q 383 377 357 431 q 458 295 410 324 q 568 267 506 267 q 694 306 642 267 q 756 417 747 344 l 804 417 q 768 315 799 360 q 686 247 738 271 q 568 222 635 222 q 432 258 490 222 q 341 356 374 293 q 308 503 308 419 z "},"®":{"ha":826,"x_min":60,"x_max":768,"o":"m 411 321 q 232 366 311 321 q 106 491 153 411 q 60 674 60 571 q 106 856 60 776 q 233 980 153 935 q 411 1025 313 1025 q 593 980 513 1025 q 721 856 674 935 q 768 674 768 776 q 721 491 768 571 q 593 366 674 411 q 411 321 513 321 m 413 360 q 572 400 501 360 q 683 511 642 440 q 725 672 725 582 q 683 835 725 764 q 571 947 642 907 q 413 988 500 988 q 254 947 325 988 q 142 835 183 906 q 101 672 101 764 q 143 511 101 582 q 255 400 185 440 q 413 360 325 360 m 285 500 l 285 849 l 443 849 q 506 837 479 849 q 548 803 533 825 q 563 747 563 781 q 545 689 563 713 q 500 657 528 665 l 500 656 q 542 629 528 649 q 556 578 556 610 l 556 536 q 556 521 556 532 q 560 500 557 510 l 510 500 q 505 513 506 507 q 504 542 504 519 l 504 581 q 493 619 504 604 q 449 633 482 633 l 324 633 l 324 672 l 433 672 q 494 692 474 672 q 514 743 514 711 q 493 792 514 775 q 433 808 472 808 l 333 808 l 333 500 l 285 500 z "},"℗":{"ha":1140,"x_min":49,"x_max":1092,"o":"m 569 -14 q 297 51 414 -14 q 114 233 179 117 q 49 504 49 350 q 114 776 49 660 q 297 958 179 893 q 569 1022 414 1022 q 844 958 726 1022 q 1026 776 961 893 q 1092 504 1092 660 q 1026 233 1092 350 q 844 51 961 117 q 569 -14 726 -14 m 569 29 q 818 89 711 29 q 985 256 925 149 q 1044 504 1044 363 q 985 753 1044 646 q 818 921 925 861 q 569 981 711 981 q 322 921 429 981 q 156 753 215 861 q 96 504 96 646 q 156 256 96 363 q 322 89 215 149 q 569 29 429 29 m 414 229 l 414 781 l 624 781 q 760 736 710 781 q 810 613 810 692 q 759 490 810 536 q 622 443 708 443 l 449 443 l 449 482 l 617 482 q 724 517 686 482 q 763 611 763 551 q 724 706 763 672 q 617 739 685 739 l 458 739 l 458 229 l 414 229 z "},"™":{"ha":981,"x_min":7,"x_max":908,"o":"m 433 582 l 433 1013 l 494 1013 l 667 638 l 671 638 l 843 1013 l 908 1013 l 908 582 l 860 582 l 860 790 l 864 953 l 860 953 l 689 582 l 650 582 l 479 953 l 476 953 l 478 790 l 478 582 l 433 582 m 160 582 l 160 971 l 7 971 l 7 1013 l 364 1013 l 364 971 l 206 971 l 206 582 l 160 582 z "},"°":{"ha":543,"x_min":60,"x_max":483,"o":"m 271 615 q 165 641 213 615 q 88 713 117 667 q 60 819 60 760 q 88 926 60 881 q 165 998 117 972 q 271 1024 213 1024 q 378 998 331 1024 q 455 926 426 972 q 483 819 483 881 q 455 713 483 760 q 378 641 426 667 q 271 615 331 615 m 271 664 q 386 708 340 664 q 432 819 432 751 q 386 932 432 889 q 271 975 340 975 q 157 932 203 975 q 111 819 111 889 q 157 708 111 751 q 271 664 203 664 z "},"|":{"ha":339,"x_min":144,"x_max":194,"o":"m 144 -93 l 144 1013 l 194 1013 l 194 -93 l 144 -93 z "},"¦":{"ha":339,"x_min":144,"x_max":194,"o":"m 144 579 l 144 1013 l 194 1013 l 194 579 l 144 579 m 144 -93 l 144 340 l 194 340 l 194 -93 l 144 -93 z "},"̈":{"ha":0,"x_min":56,"x_max":336,"o":"m 56 1069 l 56 1225 l 108 1225 l 108 1069 l 56 1069 m 282 1069 l 282 1225 l 336 1225 l 336 1069 l 282 1069 z "},"̇":{"ha":0,"x_min":56,"x_max":107,"o":"m 56 1069 l 56 1224 l 107 1224 l 107 1069 l 56 1069 z "},"̀":{"ha":0,"x_min":56,"x_max":204,"o":"m 165 1036 l 56 1225 l 114 1225 l 204 1036 l 165 1036 z "},"́":{"ha":0,"x_min":56,"x_max":204,"o":"m 56 1036 l 146 1225 l 204 1225 l 94 1036 l 56 1036 z "},"̂":{"ha":0,"x_min":56,"x_max":401,"o":"m 56 1036 l 208 1225 l 247 1225 l 401 1036 l 343 1036 l 228 1182 l 113 1036 l 56 1036 z "},"̊":{"ha":0,"x_min":56,"x_max":314,"o":"m 185 1047 q 92 1081 128 1047 q 56 1171 56 1115 q 92 1261 56 1228 q 185 1294 128 1294 q 278 1261 242 1294 q 314 1171 314 1228 q 278 1081 314 1115 q 185 1047 242 1047 m 185 1086 q 247 1110 224 1086 q 269 1171 269 1133 q 247 1231 269 1208 q 185 1254 224 1254 q 123 1231 146 1254 q 100 1171 100 1208 q 123 1110 100 1133 q 185 1086 146 1086 z "},"̃":{"ha":0,"x_min":56,"x_max":438,"o":"m 325 1078 q 260 1088 288 1078 q 208 1106 232 1097 q 156 1115 183 1115 q 115 1107 132 1115 q 81 1075 97 1099 l 56 1092 q 88 1132 72 1117 q 122 1154 103 1147 q 164 1161 140 1161 q 219 1151 190 1161 q 277 1132 247 1142 q 335 1122 307 1122 q 376 1132 356 1122 q 411 1164 396 1142 l 438 1146 q 388 1094 415 1110 q 325 1078 361 1078 z "},"̧":{"ha":0,"x_min":49,"x_max":267,"o":"m 157 -290 q 99 -280 124 -290 q 63 -250 75 -269 q 49 -204 50 -231 l 90 -204 q 111 -240 93 -226 q 156 -254 129 -254 q 205 -236 186 -254 q 224 -187 224 -218 q 206 -140 224 -157 q 157 -124 189 -124 l 114 -124 l 114 4 l 156 4 l 156 -89 q 240 -117 213 -90 q 267 -187 267 -143 q 253 -244 267 -221 q 215 -278 239 -267 q 157 -290 190 -290 z "},"̷":{"ha":0,"x_min":92,"x_max":799,"o":"m 92 -83 l 743 801 l 799 801 l 149 -83 l 92 -83 z "},"̸":{"ha":0,"x_min":69,"x_max":953,"o":"m 69 -112 l 899 1013 l 953 1013 l 128 -112 l 69 -112 z "},"¨":{"ha":392,"x_min":56,"x_max":336,"o":"m 56 1069 l 56 1225 l 108 1225 l 108 1069 l 56 1069 m 282 1069 l 282 1225 l 336 1225 l 336 1069 l 282 1069 z "},"˙":{"ha":163,"x_min":56,"x_max":107,"o":"m 56 1069 l 56 1224 l 107 1224 l 107 1069 l 56 1069 z "},"`":{"ha":260,"x_min":56,"x_max":204,"o":"m 165 1036 l 56 1225 l 114 1225 l 204 1036 l 165 1036 z "},"´":{"ha":260,"x_min":56,"x_max":204,"o":"m 56 1036 l 146 1225 l 204 1225 l 94 1036 l 56 1036 z "},"˝":{"ha":440,"x_min":56,"x_max":385,"o":"m 56 1036 l 146 1225 l 204 1225 l 94 1036 l 56 1036 m 236 1036 l 326 1225 l 385 1225 l 275 1036 l 236 1036 z "},"ˆ":{"ha":457,"x_min":56,"x_max":401,"o":"m 56 1036 l 208 1225 l 247 1225 l 401 1036 l 343 1036 l 228 1182 l 113 1036 l 56 1036 z "},"ˇ":{"ha":457,"x_min":56,"x_max":401,"o":"m 208 1036 l 56 1225 l 113 1225 l 228 1078 l 343 1225 l 401 1225 l 247 1036 l 208 1036 z "},"˘":{"ha":482,"x_min":56,"x_max":426,"o":"m 242 1031 q 140 1052 182 1031 q 78 1116 99 1074 q 56 1218 57 1158 l 108 1218 q 124 1140 108 1172 q 169 1090 139 1107 q 242 1074 199 1074 q 342 1112 307 1074 q 375 1218 376 1150 l 426 1218 q 379 1079 426 1128 q 242 1031 332 1031 z "},"˚":{"ha":369,"x_min":56,"x_max":314,"o":"m 185 1047 q 92 1081 128 1047 q 56 1171 56 1115 q 92 1261 56 1228 q 185 1294 128 1294 q 278 1261 242 1294 q 314 1171 314 1228 q 278 1081 314 1115 q 185 1047 242 1047 m 185 1086 q 247 1110 224 1086 q 269 1171 269 1133 q 247 1231 269 1208 q 185 1254 224 1254 q 123 1231 146 1254 q 100 1171 100 1208 q 123 1110 100 1133 q 185 1086 146 1086 z "},"˜":{"ha":493,"x_min":56,"x_max":438,"o":"m 325 1078 q 260 1088 288 1078 q 208 1106 232 1097 q 156 1115 183 1115 q 115 1107 132 1115 q 81 1075 97 1099 l 56 1092 q 88 1132 72 1117 q 122 1154 103 1147 q 164 1161 140 1161 q 219 1151 190 1161 q 277 1132 247 1142 q 335 1122 307 1122 q 376 1132 356 1122 q 411 1164 396 1142 l 438 1146 q 388 1094 415 1110 q 325 1078 361 1078 z "},"¯":{"ha":560,"x_min":56,"x_max":504,"o":"m 56 1083 l 56 1129 l 504 1129 l 504 1083 l 56 1083 z "},"¸":{"ha":321,"x_min":49,"x_max":267,"o":"m 157 -290 q 99 -280 124 -290 q 63 -250 75 -269 q 49 -204 50 -231 l 90 -204 q 111 -240 93 -226 q 156 -254 129 -254 q 205 -236 186 -254 q 224 -187 224 -218 q 206 -140 224 -157 q 157 -124 189 -124 l 114 -124 l 114 4 l 156 4 l 156 -89 q 240 -117 213 -90 q 267 -187 267 -143 q 253 -244 267 -221 q 215 -278 239 -267 q 157 -290 190 -290 z "},"˛":{"ha":296,"x_min":47,"x_max":240,"o":"m 164 -218 q 79 -189 111 -218 q 47 -110 47 -160 q 76 -28 47 -61 q 136 15 104 6 l 171 0 q 115 -38 136 -12 q 94 -100 94 -64 q 117 -156 94 -135 q 174 -176 139 -176 q 211 -172 193 -176 q 240 -162 229 -168 l 240 -204 q 208 -214 229 -210 q 164 -218 188 -218 z "}}}
